<svg xmlns="http://www.w3.org/2000/svg" xmlns:xlink="http://www.w3.org/1999/xlink" width="512" height="524" viewBox="0 0 556.995 570.049"><defs><marker id="a" orient="auto" refX="0" refY="0" style="overflow:visible"><path d="m0 0 5-5-17.5 5L5 5Z" style="fill-rule:evenodd;stroke:#000;stroke-width:1.00000003pt" transform="rotate(180 -5 0)scale(.8)"/></marker></defs><g transform="translate(-29.56 -214.367)"><path d="M176.857 222.362v553.572M428.857 222.362v553.572" style="fill:none;stroke:#000;stroke-width:6;stroke-linecap:round;stroke-linejoin:miter;stroke-miterlimit:4;stroke-dasharray:none;stroke-opacity:1"/><path d="m188.571 250.22 228.748 31.292" style="fill:none;stroke:#000;stroke-width:1px;stroke-linecap:butt;stroke-linejoin:miter;stroke-opacity:1;marker-start:none;marker-end:url(#a)"/><path d="m188.571 274.22 228.748 31.292" style="fill:none;stroke:#000;stroke-width:1px;stroke-linecap:butt;stroke-linejoin:miter;stroke-opacity:1;marker-start:none;marker-end:url(#a)"/><path id="c" d="M417.32 322.22 188.57 353.511" style="fill:none;stroke:#000;stroke-width:1px;stroke-linecap:butt;stroke-linejoin:miter;stroke-opacity:1;marker-start:none;marker-end:url(#a)"/><g aria-label="ACK=2" style="font-style:normal;font-variant:normal;font-weight:400;font-stretch:normal;font-size:18px;line-height:0%;font-family:&quot;Droid Sans&quot;;-inkscape-font-specification:&quot;Droid Sans&quot;;text-align:start;letter-spacing:0;word-spacing:0;text-anchor:start;fill:#000;fill-opacity:1;stroke:none"><path d="m408.132 323.476 1.933 3.754 4.746-.649.871-4.138 1.637-.224-2.927 13.423-1.48.203-6.434-12.143zm2.644 5.12 1.794 3.517q.073.15.183.365l.214.467q.114.25.23.519.119.276.225.537.024-.278.063-.577.04-.298.08-.578.043-.272.09-.51.04-.227.073-.382l.757-3.865zM401.327 336.108q.931-.128 1.64-.588.71-.452 1.16-1.188.44-.734.606-1.724.158-.989-.006-2.181-.168-1.228-.551-2.152-.391-.913-.994-1.496-.604-.583-1.416-.817-.813-.235-1.84-.095-.776.106-1.452.35-.675.252-1.327.545l-.193-1.41q.322-.178.647-.329.327-.142.693-.254.357-.111.78-.196.413-.092.927-.162 1.428-.195 2.538.132t1.915 1.095q.797.77 1.293 1.934.497 1.166.698 2.637.198 1.446-.012 2.699-.219 1.254-.832 2.216-.623.963-1.646 1.591t-2.433.821q-.94.129-1.82.054t-1.618-.347l.493-1.451q.587.204 1.259.316t1.49 0zM385.57 326.563l1.838-.252 4.758 5.541 1.075-1.158-.696-5.086 1.62-.221 1.741 12.73-1.62.222-.87-6.365-.854 1.607-3.265 5.441-1.82.249 3.77-6.166zM385.68 334.106l.177 1.297-8.046 1.1-.178-1.297zm-.489-3.57.179 1.306-8.046 1.1-.18-1.306zM366.953 329.11l7.941-1.087.186 1.359-2.594 3.734q-.557.795-.99 1.449-.434.653-.715 1.26-.29.607-.405 1.19-.114.593-.024 1.254.07.514.272.886.202.371.518.603.308.242.701.33.394.088.855.025.827-.113 1.451-.544.617-.422 1.146-1.027l1.03.915q-.305.361-.669.686-.362.333-.796.597t-.933.447q-.497.192-1.063.27-.836.114-1.539-.03-.71-.142-1.242-.522-.53-.37-.87-.972-.346-.591-.455-1.383-.1-.74.043-1.443.134-.702.454-1.41.313-.7.79-1.43.467-.73 1.024-1.525l2.09-2.938-.01-.07-6 .821z" style="font-weight:400;font-size:18px;-inkscape-font-specification:&quot;Droid Sans&quot;" transform="rotate(180 313.975 335.275)"/></g><path d="m188.571 298.22 107.32 15.864" style="fill:none;stroke:#000;stroke-width:1px;stroke-linecap:butt;stroke-linejoin:miter;stroke-opacity:1;marker-start:none;marker-end:url(#a)"/><path d="m-83.571 278.79-53.215 53.215M-136.786 278.79l53.215 53.215" style="fill:none;stroke:#c90000;stroke-width:10;stroke-linecap:round;stroke-linejoin:miter;stroke-miterlimit:4;stroke-dasharray:none;stroke-opacity:1" transform="rotate(16.44 -542.19 1426.385)scale(.40113)"/><path id="d" d="m188.571 358.22 228.748 31.292" style="fill:none;stroke:#000;stroke-width:1px;stroke-linecap:butt;stroke-linejoin:miter;stroke-opacity:1;marker-start:none;marker-end:url(#a)"/><g aria-label="SEQ=1" style="font-style:normal;font-variant:normal;font-weight:400;font-stretch:normal;font-size:18px;line-height:0%;font-family:&quot;Droid Sans&quot;;-inkscape-font-specification:&quot;Droid Sans&quot;;text-align:start;letter-spacing:0;word-spacing:0;text-anchor:start;fill:#000;fill-opacity:1;stroke:none"><path d="M216.904 247.969q-.116.845-.512 1.473-.387.622-1.007 1.007t-1.455.52q-.834.125-1.835-.012-.967-.132-1.79-.405-.815-.262-1.341-.636l.212-1.55q.277.18.632.37.366.184.77.346.403.161.838.292.435.121.87.18 1.394.192 2.127-.24.742-.431.876-1.406.064-.47-.019-.837-.074-.365-.357-.696-.273-.34-.767-.682-.493-.351-1.259-.784-.733-.411-1.26-.847-.515-.443-.828-.947-.303-.503-.408-1.102-.095-.599.005-1.33.105-.767.466-1.33.36-.562.922-.902.562-.35 1.289-.472.735-.12 1.58-.006 1.036.142 1.835.456.801.304 1.404.697l-.77 1.279q-.53-.33-1.228-.612-.688-.29-1.454-.394-1.063-.145-1.714.271-.65.408-.765 1.244-.068.496.013.88.082.375.346.713.266.329.726.658.47.321 1.163.709.75.422 1.296.834.556.413.9.886.343.472.468 1.048.134.578.031 1.326zM225.607 252.628l-6.609-.904 1.742-12.731 6.61.904-.196 1.428-4.99-.682-.538 3.936 4.658.637-.193 1.41-4.658-.637-.62 4.528 4.99.683zM239.673 248.05q-.156 1.14-.508 2.095-.344.955-.87 1.69-.517.728-1.213 1.218t-1.552.71q.262.87.77 1.57.515.709 1.227 1.338l-1.223 1.093q-.81-.758-1.45-1.724-.63-.965-.923-2.131-.15-.003-.335-.02-.175-.015-.332-.036-1.42-.194-2.4-.807-.972-.612-1.542-1.569-.561-.955-.726-2.21-.165-1.265.038-2.745.202-1.48.698-2.637.496-1.165 1.3-1.924.806-.76 1.914-1.078 1.109-.327 2.528-.133 1.35.184 2.305.794.964.602 1.543 1.56.58.948.762 2.206.193 1.25-.01 2.74m-9.326-1.276q-.163 1.193-.068 2.182.097.98.467 1.714.38.726 1.044 1.18.676.448 1.668.583.993.136 1.755-.114.771-.259 1.323-.857.562-.606.91-1.526.349-.928.512-2.12.164-1.203.076-2.181-.088-.98-.46-1.696-.37-.725-1.037-1.17-.665-.455-1.658-.591t-1.764.122q-.77.25-1.332.847-.56.589-.915 1.507-.357.918-.521 2.12M241.81 247.286l.177-1.297 8.046 1.1-.178 1.298zm-.49 3.57.18-1.306 8.046 1.101-.18 1.306zM255.92 256.775l-1.533-.21 1.088-7.95.11-.801.132-.843q.076-.424.137-.806.071-.39.12-.684-.169.136-.298.234t-.264.185l-.275.194-.35.227-1.434.877-.689-1.186 3.691-2.147 1.307.179z"/></g><g aria-label="SEQ=2" style="font-style:normal;font-variant:normal;font-weight:400;font-stretch:normal;font-size:18px;line-height:0%;font-family:&quot;Droid Sans&quot;;-inkscape-font-specification:&quot;Droid Sans&quot;;text-align:start;letter-spacing:0;word-spacing:0;text-anchor:start;fill:#000;fill-opacity:1;stroke:none"><path d="M216.904 271.969q-.116.845-.512 1.473-.387.622-1.007 1.007t-1.455.52q-.834.125-1.835-.012-.967-.132-1.79-.405-.815-.262-1.341-.636l.212-1.55q.277.18.632.37.366.184.77.346.403.161.838.292.435.121.87.18 1.394.192 2.127-.24.742-.431.876-1.406.064-.47-.019-.837-.074-.365-.357-.696-.273-.34-.767-.682-.493-.351-1.259-.784-.733-.411-1.26-.847-.515-.443-.828-.947-.303-.503-.408-1.102-.095-.599.005-1.33.105-.767.466-1.33.36-.562.922-.902.562-.35 1.289-.472.735-.12 1.58-.006 1.036.142 1.835.456.801.304 1.404.697l-.77 1.279q-.53-.33-1.228-.612-.688-.29-1.454-.394-1.063-.145-1.714.271-.65.408-.765 1.244-.068.496.013.88.082.375.346.713.266.329.726.658.47.321 1.163.709.75.422 1.296.834.556.413.9.886.343.472.468 1.048.134.578.031 1.326zM225.607 276.628l-6.609-.904 1.742-12.731 6.61.904-.196 1.428-4.99-.682-.538 3.936 4.658.637-.193 1.41-4.658-.637-.62 4.528 4.99.683zM239.673 272.05q-.156 1.14-.508 2.095-.344.955-.87 1.69-.517.728-1.213 1.218t-1.552.71q.262.87.77 1.57.515.709 1.227 1.338l-1.223 1.093q-.81-.758-1.45-1.724-.63-.965-.923-2.131-.15-.003-.335-.02-.175-.015-.332-.036-1.42-.194-2.4-.807-.972-.612-1.542-1.569-.561-.955-.726-2.21-.165-1.265.038-2.745.202-1.48.698-2.637.496-1.165 1.3-1.924.806-.76 1.914-1.078 1.109-.327 2.528-.133 1.35.184 2.305.794.964.602 1.543 1.56.58.948.762 2.206.193 1.25-.01 2.74m-9.326-1.276q-.163 1.193-.068 2.182.097.98.467 1.714.38.726 1.044 1.18.676.448 1.668.583.993.136 1.755-.114.771-.259 1.323-.857.562-.606.91-1.526.349-.928.512-2.12.164-1.203.076-2.181-.088-.98-.46-1.696-.37-.725-1.037-1.17-.665-.455-1.658-.591t-1.764.122q-.77.25-1.332.847-.56.589-.915 1.507-.357.918-.521 2.12M241.81 271.286l.177-1.297 8.046 1.1-.178 1.298zm-.49 3.57.18-1.306 8.046 1.101-.18 1.306zM258.506 281.129l-7.941-1.087.185-1.358 3.502-2.901q.75-.616 1.343-1.13.594-.512 1.027-1.02.442-.508.71-1.04.269-.539.36-1.2.07-.515-.025-.927-.094-.412-.336-.72-.232-.315-.587-.506-.355-.19-.817-.254-.827-.113-1.544.135-.707.24-1.38.68l-.746-1.157q.391-.266.829-.481.438-.224.927-.361t1.018-.18q.53-.052 1.097.026.836.114 1.474.44.647.329 1.057.837.41.5.576 1.17.175.663.067 1.455-.101.74-.428 1.379-.318.64-.817 1.237-.489.59-1.144 1.165-.647.577-1.396 1.193l-2.803 2.269-.01.07 6 .82z"/></g><g id="b" aria-label="SEQ=3" style="font-style:normal;font-variant:normal;font-weight:400;font-stretch:normal;font-size:18px;line-height:0%;font-family:&quot;Droid Sans&quot;;-inkscape-font-specification:&quot;Droid Sans&quot;;text-align:start;letter-spacing:0;word-spacing:0;text-anchor:start;fill:#000;fill-opacity:1;stroke:none"><path d="M216.904 295.397q-.116.845-.512 1.474-.387.621-1.007 1.006-.62.386-1.455.52-.834.126-1.835-.012-.967-.132-1.79-.404-.815-.262-1.341-.636l.212-1.55q.277.18.632.37.366.183.77.345.403.162.838.292.435.122.87.181 1.394.191 2.127-.24.742-.432.876-1.407.064-.47-.019-.836-.074-.365-.357-.697-.273-.339-.767-.681-.493-.352-1.259-.785-.733-.41-1.26-.846-.515-.443-.828-.947-.303-.503-.408-1.103-.095-.598.005-1.33.105-.766.466-1.329.36-.563.922-.903.562-.349 1.289-.471.735-.121 1.58-.006 1.036.142 1.835.455.801.305 1.404.698l-.77 1.278q-.53-.33-1.228-.611-.688-.29-1.454-.394-1.063-.146-1.714.27-.65.409-.765 1.245-.068.496.013.88.082.374.346.712.266.33.726.658.47.322 1.163.71.75.421 1.296.833.556.413.9.886t.468 1.049q.134.577.031 1.326zM225.607 300.057l-6.609-.905 1.742-12.73 6.61.904-.196 1.428-4.99-.683-.538 3.936 4.658.637-.193 1.411-4.658-.637-.62 4.528 4.99.683zM239.673 295.478q-.156 1.141-.508 2.095-.344.956-.87 1.691-.517.728-1.213 1.218t-1.552.71q.262.87.77 1.57.515.708 1.227 1.338l-1.223 1.092q-.81-.758-1.45-1.724-.63-.964-.923-2.13-.15-.004-.335-.02-.175-.015-.332-.037-1.42-.194-2.4-.807-.972-.612-1.542-1.568-.561-.955-.726-2.21-.165-1.265.038-2.745.202-1.48.698-2.637.496-1.165 1.3-1.925.806-.759 1.914-1.078 1.109-.327 2.528-.133 1.35.185 2.305.795.964.602 1.543 1.56.58.948.762 2.206.193 1.25-.01 2.74m-9.326-1.275q-.163 1.193-.068 2.181.097.98.467 1.714.38.726 1.044 1.181.676.447 1.668.583.993.136 1.755-.115.771-.258 1.323-.857.562-.606.91-1.525.349-.928.512-2.121.164-1.202.076-2.18-.088-.98-.46-1.696-.37-.725-1.037-1.171-.665-.455-1.658-.59-.993-.136-1.764.122-.77.25-1.332.847-.56.588-.915 1.507-.357.918-.521 2.12M241.81 294.715l.177-1.298 8.046 1.101-.178 1.298zm-.49 3.57.18-1.306 8.046 1.1-.18 1.307zM259.431 294.748q-.087.636-.359 1.131-.271.495-.69.828-.409.335-.949.518-.538.175-1.17.195l-.008.052q1.516.402 2.208 1.304.694.894.521 2.156-.114.836-.497 1.494-.374.658-1.017 1.084-.644.427-1.562.585-.917.159-2.12-.006-.948-.13-1.773-.393-.815-.263-1.502-.756l.203-1.48q.702.504 1.552.842.858.34 1.668.45.801.11 1.409.015.607-.094 1.026-.365.427-.27.665-.716.247-.445.327-1.029.081-.592-.097-1.042-.168-.458-.557-.786-.389-.337-.99-.552-.591-.214-1.366-.32l-1.158-.159.18-1.315 1.158.159q.705.096 1.278-.003.572-.1.982-.371.418-.271.67-.69.253-.417.326-.948.061-.453-.046-.832-.108-.378-.362-.661-.253-.292-.636-.477-.383-.186-.87-.253-.932-.127-1.686.071-.745.191-1.454.573l-.652-1.198q.368-.225.8-.405.442-.179.945-.288.504-.117 1.058-.148.563-.029 1.172.054.94.129 1.614.46.682.333 1.102.826.422.483.586 1.1.165.608.071 1.296z"/></g><use xlink:href="#b" width="744.094" height="1052.362" transform="translate(135.714 76.429)"/><use xlink:href="#c" id="e" width="744.094" height="1052.362" x="0" y="0" transform="translate(0 74)"/><g aria-label="FIN" style="font-style:normal;font-variant:normal;font-weight:400;font-stretch:normal;font-size:18px;line-height:0%;font-family:&quot;Droid Sans&quot;;-inkscape-font-specification:&quot;Droid Sans&quot;;text-align:start;letter-spacing:0;word-spacing:0;text-anchor:start;fill:#000;fill-opacity:1;stroke:none"><path d="m213.983 419.873-1.62.221-1.741-12.73 6.61-.905.195 1.428-4.99.683.615 4.493 4.658-.637.196 1.428-4.66.637zM224.737 418.402l-4.615.631-.121-.888 1.449-.562-1.401-10.24-1.547-.153-.121-.888 4.615-.631.121.888-1.449.562 1.401 10.24 1.547.152zM236.737 416.76l-1.872.256-7.703-9.68-.07.01q.145.664.27 1.32.112.562.214 1.178.11.614.179 1.11l.945 6.906-1.498.205-1.742-12.731 1.855-.254 7.67 9.632.06-.008q-.117-.659-.24-1.298-.046-.278-.103-.563-.05-.294-.106-.58l-.095-.563-.068-.496-.953-6.967 1.515-.207z"/></g><path d="m188.571 432.22 228.748 31.292" style="fill:none;stroke:#000;stroke-width:1px;stroke-linecap:butt;stroke-linejoin:miter;stroke-opacity:1;marker-start:none;marker-end:url(#a)"/><g aria-label="FIN,ACK" style="font-style:normal;font-variant:normal;font-weight:400;font-stretch:normal;font-size:18px;line-height:0%;font-family:&quot;Droid Sans&quot;;-inkscape-font-specification:&quot;Droid Sans&quot;;text-align:start;letter-spacing:0;word-spacing:0;text-anchor:start;fill:#000;fill-opacity:1;stroke:none"><path d="m333.542 448.535-1.62-.221 1.742-12.732 6.61.905-.196 1.428-4.99-.683-.614 4.493 4.659.638-.196 1.428-4.659-.637zM344.297 450.006l-4.616-.631.122-.888 1.547-.152 1.4-10.241-1.449-.562.122-.888 4.615.631-.121.888-1.547.153-1.4 10.24 1.448.562zM356.296 451.648l-1.872-.256-4.82-11.393-.07-.01q-.039.677-.095 1.344-.042.57-.11 1.191-.058.622-.126 1.118l-.944 6.906-1.498-.205 1.742-12.731 1.854.254 4.8 11.337.062.008q.064-.665.118-1.315.03-.28.051-.57.032-.296.054-.586l.06-.569.068-.496.953-6.966 1.515.207zM361.456 450.242l.103.219q-.186.453-.433.96-.238.51-.52 1.02-.275.513-.574 1.013-.291.51-.576.968l-1.202-.164q.204-.514.404-1.072.21-.557.401-1.116.2-.55.37-1.076.17-.535.303-.987zM371.666 453.75l-.854-4.135-4.746-.65-1.95 3.753-1.637-.224 6.425-12.144 1.48.203 2.936 13.424zm-1.171-5.642-.784-3.868q-.03-.164-.078-.401-.039-.236-.081-.508t-.083-.562q-.04-.298-.072-.577-.098.261-.216.538t-.233.536q-.114.25-.223.466-.1.208-.172.35l-1.768 3.519zM381.614 443.41q-.932-.127-1.738.126-.805.245-1.436.833-.622.59-1.047 1.498-.418.91-.58 2.103-.169 1.228-.047 2.22.131.985.555 1.708.425.724 1.145 1.168.72.445 1.747.585.775.106 1.492.053.718-.061 1.425-.168l-.193 1.41q-.358.085-.712.143-.352.049-.735.059-.374.01-.804-.022-.423-.022-.937-.092-1.428-.196-2.409-.809t-1.55-1.57q-.562-.954-.727-2.21t.036-2.727q.198-1.446.737-2.596.547-1.15 1.397-1.912.858-.76 2.012-1.09t2.564-.137q.94.128 1.768.437.827.308 1.465.768l-.865 1.265q-.51-.353-1.127-.642-.617-.288-1.436-.4M394.228 456.837l-1.837-.251-3.096-6.616-1.346.827-.696 5.086-1.62-.222 1.742-12.73 1.62.22-.871 6.366 1.254-1.319 4.606-4.364 1.82.25-5.287 4.927z"/></g><use xlink:href="#c" width="744.094" height="1052.362" transform="translate(0 148)"/><g aria-label="ACK" style="font-style:normal;font-variant:normal;font-weight:400;font-stretch:normal;font-size:18px;line-height:0%;font-family:&quot;Droid Sans&quot;;-inkscape-font-specification:&quot;Droid Sans&quot;;text-align:start;letter-spacing:0;word-spacing:0;text-anchor:start;fill:#000;fill-opacity:1;stroke:none"><path d="m219.817 493.075-1.932-3.754-4.746.649-.871 4.138-1.637.223 2.927-13.422 1.48-.203 6.434 12.142zm-2.643-5.12-1.794-3.517q-.073-.15-.183-.365l-.214-.467q-.115-.251-.231-.519-.118-.277-.224-.537-.024.278-.063.576-.04.298-.08.58-.044.271-.09.508-.04.227-.073.383l-.757 3.865zM226.623 480.443q-.932.127-1.64.588-.71.452-1.16 1.188-.44.734-.606 1.724-.158.988.006 2.181.168 1.228.551 2.151.391.914.994 1.497t1.416.817 1.84.095q.775-.107 1.452-.35.675-.252 1.327-.545l.193 1.41q-.322.178-.647.329-.327.142-.693.254-.357.111-.78.196-.414.092-.927.162-1.428.195-2.538-.132t-1.915-1.095q-.797-.77-1.293-1.935-.497-1.165-.698-2.636-.198-1.446.012-2.699.219-1.254.832-2.216.623-.963 1.646-1.591t2.433-.821q.94-.129 1.82-.054t1.618.347l-.494 1.45q-.586-.203-1.258-.315t-1.49 0zM242.38 489.988l-1.838.252-4.758-5.541-1.075 1.158.696 5.085-1.62.222-1.742-12.731 1.62-.222.87 6.366.854-1.607 3.266-5.441 1.82-.25-3.77 6.167z"/></g><g style="font-style:normal;font-variant:normal;font-weight:400;font-stretch:normal;line-height:0%;font-family:&quot;Droid Sans&quot;;-inkscape-font-specification:&quot;Droid Sans&quot;;text-align:start;letter-spacing:0;word-spacing:0;text-anchor:start;fill:#000;fill-opacity:1;stroke:none"><path d="M199.005 270.397c0-10.224-2.289-16.48-12.666-18.312v-.61c10.987-2.29 12.666-9.614 12.666-20.143v-25.943c0-9.003 2.594-14.344 10.682-16.48v-.306c-16.328-.763-20.448 5.8-20.448 22.127v24.57c0 9.918-1.832 14.191-11.598 16.175v.61c8.85.763 11.598 8.546 11.598 16.176v27.468c0 15.565 5.493 19.838 20.906 19.838v-.305c-8.85-2.442-11.14-7.172-11.14-16.48z" aria-label="{" style="font-style:normal;font-variant:normal;font-weight:400;font-stretch:normal;font-size:152.6010437px;line-height:1.25;font-family:&quot;ITC New Baskerville Std&quot;;-inkscape-font-specification:&quot;ITC New Baskerville Std&quot;" transform="scale(.79125 1.26382)"/></g><g aria-label="ESTABLISHED" style="font-style:normal;font-variant:normal;font-weight:400;font-stretch:normal;line-height:0%;font-family:&quot;Droid Sans&quot;;-inkscape-font-specification:&quot;Droid Sans&quot;;text-align:start;letter-spacing:0;word-spacing:0;text-anchor:start;fill:#000;fill-opacity:1;stroke:none"><path d="M-369.583 130.347h-7.412V116.07h7.412v1.602h-5.595v4.414h5.224v1.582h-5.224v5.078h5.595zM-358.928 126.529q0 .947-.342 1.7-.332.741-.957 1.259t-1.524.791q-.898.264-2.021.264-1.084 0-2.031-.176-.938-.166-1.573-.498v-1.738q.332.156.752.312.43.147.899.264t.967.195q.498.068.986.068 1.562 0 2.305-.585.752-.586.752-1.68 0-.528-.147-.918-.137-.39-.498-.713-.351-.332-.947-.635-.596-.312-1.504-.674-.87-.341-1.514-.742-.635-.41-1.054-.918-.41-.508-.616-1.152-.195-.645-.195-1.465 0-.86.313-1.533.312-.674.878-1.133.567-.469 1.348-.713.791-.244 1.738-.244 1.162 0 2.09.225.928.214 1.65.556l-.654 1.524q-.634-.284-1.445-.489-.8-.214-1.66-.214-1.192 0-1.846.556-.654.547-.654 1.485 0 .556.146.966.147.4.489.733.341.322.898.615.566.283 1.387.605.888.352 1.552.723.674.371 1.124.84.449.469.673 1.084.235.615.235 1.455M-351.897 130.347h-1.826v-12.675h-4.082v-1.602h9.98v1.602h-4.072zM-338.518 130.347l-1.563-4.423h-5.322l-1.582 4.423h-1.836l5.244-14.336h1.66l5.254 14.336zm-2.139-6.035-1.445-4.14q-.059-.176-.147-.43l-.166-.547q-.088-.293-.175-.605-.088-.323-.166-.625-.069.302-.157.625-.088.322-.175.625-.088.293-.176.546-.078.245-.137.41l-1.416 4.141zM-334.73 116.07h3.897q1.25 0 2.198.195.957.186 1.591.616.645.42.967 1.113.323.683.323 1.69 0 .605-.196 1.132-.185.527-.547.928-.361.4-.898.674-.527.263-1.201.351v.098q.674.117 1.26.342.595.215 1.035.605.44.381.693.967.254.586.254 1.426 0 .976-.322 1.748-.313.762-.918 1.299-.596.527-1.455.81t-1.944.283h-4.736zm1.817 6.055h2.383q.82 0 1.377-.147.557-.146.899-.43.341-.292.488-.722.156-.44.156-1.016 0-1.172-.752-1.68-.752-.507-2.373-.507h-2.178zm0 1.523v5.156h2.598q.86 0 1.436-.195.585-.195.937-.547.361-.351.518-.84.156-.498.156-1.093 0-.547-.166-1.006-.156-.46-.527-.781-.362-.333-.967-.508-.606-.186-1.504-.186zM-322.307 130.347V116.07h1.816v12.656h5.596v1.621zM-308.43 130.347h-5.176v-.996l1.68-.4v-11.484l-1.68-.4v-.997h5.176v.996l-1.68.4v11.485l1.68.4zM-298.147 126.529q0 .947-.342 1.7-.332.741-.957 1.259t-1.523.791q-.899.264-2.022.264-1.084 0-2.031-.176-.938-.166-1.572-.498v-1.738q.332.156.752.312.43.147.898.264t.967.195q.498.068.986.068 1.563 0 2.305-.585.752-.586.752-1.68 0-.528-.147-.918-.136-.39-.498-.713-.351-.332-.947-.635-.596-.312-1.504-.674-.869-.341-1.514-.742-.634-.41-1.054-.918-.41-.508-.615-1.152-.196-.645-.196-1.465 0-.86.313-1.533.312-.674.879-1.133.566-.469 1.347-.713.791-.244 1.739-.244 1.162 0 2.09.225.927.214 1.65.556l-.654 1.524q-.635-.284-1.446-.489-.8-.214-1.66-.214-1.191 0-1.846.556-.654.547-.654 1.485 0 .556.147.966.146.4.488.733.342.322.898.615.567.283 1.387.605.889.352 1.553.723.674.371 1.123.84t.674 1.084q.234.615.234 1.455M-285.14 130.347h-1.816v-6.66h-6.504v6.66h-1.816V116.07h1.816v6.016h6.504v-6.016h1.817zM-273.84 130.347h-7.413V116.07h7.413v1.602h-5.596v4.414h5.225v1.582h-5.225v5.078h5.596zM-260.188 123.072q0 1.807-.469 3.174-.469 1.357-1.357 2.275-.889.908-2.188 1.367-1.289.46-2.93.46h-3.574V116.07h3.975q1.494 0 2.705.45 1.211.448 2.06 1.337.85.879 1.31 2.188.468 1.308.468 3.027m-1.924.059q0-1.426-.322-2.461-.322-1.045-.938-1.72-.615-.673-1.513-.995-.899-.332-2.041-.332h-1.963v11.162h1.582q2.578 0 3.887-1.426 1.308-1.426 1.308-4.228" style="font-size:20px;line-height:1.25" transform="rotate(-90)"/></g><g style="font-style:normal;font-variant:normal;font-weight:400;font-stretch:normal;line-height:0%;font-family:&quot;Droid Sans&quot;;-inkscape-font-specification:&quot;Droid Sans&quot;;text-align:start;letter-spacing:0;word-spacing:0;text-anchor:start;fill:#000;fill-opacity:1;stroke:none"><path d="M-520.436 285.826c0-9.37-2.098-15.103-11.607-16.781v-.56c10.069-2.097 11.607-8.81 11.607-18.458v-23.773c0-8.25 2.377-13.145 9.789-15.103v-.28c-14.963-.699-18.739 5.314-18.739 20.277v22.514c0 9.09-1.678 13.006-10.628 14.824v.559c8.11.7 10.628 7.83 10.628 14.823v25.171c0 14.264 5.034 18.18 19.158 18.18v-.28c-8.11-2.238-10.208-6.573-10.208-15.103z" aria-label="{" style="font-style:normal;font-variant:normal;font-weight:400;font-stretch:normal;font-size:139.84007263px;line-height:1.25;font-family:&quot;ITC New Baskerville Std&quot;;-inkscape-font-specification:&quot;ITC New Baskerville Std&quot;" transform="scale(-.86345 1.15814)"/></g><g aria-label="ESTABLISHED" style="font-style:normal;font-variant:normal;font-weight:400;font-stretch:normal;line-height:0%;font-family:&quot;Droid Sans&quot;;-inkscape-font-specification:&quot;Droid Sans&quot;;text-align:start;letter-spacing:0;word-spacing:0;text-anchor:start;fill:#000;fill-opacity:1;stroke:none"><path d="M-364.583 490.347h-7.412V476.07h7.412v1.602h-5.595v4.414h5.224v1.582h-5.224v5.078h5.595zM-353.928 486.529q0 .947-.342 1.7-.332.741-.957 1.259t-1.524.791q-.898.264-2.021.264-1.084 0-2.031-.176-.938-.166-1.573-.498v-1.738q.332.156.752.312.43.147.899.264t.967.195q.498.068.986.068 1.562 0 2.305-.585.752-.586.752-1.68 0-.528-.147-.918-.137-.39-.498-.713-.351-.332-.947-.635-.596-.312-1.504-.674-.87-.341-1.514-.742-.635-.41-1.054-.918-.41-.508-.616-1.152-.195-.645-.195-1.465 0-.86.313-1.533.312-.674.878-1.133.567-.469 1.348-.713.791-.244 1.738-.244 1.162 0 2.09.225.928.214 1.65.556l-.654 1.524q-.634-.284-1.445-.489-.8-.214-1.66-.214-1.192 0-1.846.556-.654.547-.654 1.485 0 .556.146.966.147.4.489.733.341.322.898.615.566.283 1.387.605.888.352 1.552.723.674.371 1.124.84.449.469.673 1.084.235.615.235 1.455M-346.897 490.347h-1.826v-12.675h-4.082v-1.602h9.98v1.602h-4.072zM-333.518 490.347l-1.563-4.423h-5.322l-1.582 4.423h-1.836l5.244-14.336h1.66l5.254 14.336zm-2.139-6.035-1.445-4.14q-.059-.176-.147-.43l-.166-.547q-.088-.293-.175-.605-.088-.323-.166-.625-.069.302-.157.625-.088.322-.175.625-.088.293-.176.546-.078.245-.137.41l-1.416 4.141zM-329.73 476.07h3.897q1.25 0 2.198.195.957.186 1.591.616.645.42.967 1.113.323.683.323 1.69 0 .605-.196 1.132-.185.527-.547.928-.361.4-.898.674-.527.263-1.201.351v.098q.674.117 1.26.342.595.214 1.035.605.44.381.693.967.254.586.254 1.426 0 .976-.322 1.748-.313.761-.918 1.299-.596.527-1.455.81t-1.944.283h-4.736zm1.817 6.055h2.383q.82 0 1.377-.147.557-.146.899-.43.341-.292.488-.722.156-.44.156-1.016 0-1.172-.752-1.68-.752-.507-2.373-.507h-2.178zm0 1.523v5.156h2.598q.86 0 1.436-.195.585-.195.937-.547.361-.351.518-.84.156-.498.156-1.093 0-.547-.166-1.006-.156-.46-.527-.782-.362-.332-.967-.507-.606-.186-1.504-.186zM-317.307 490.347V476.07h1.816v12.656h5.596v1.621zM-303.43 490.347h-5.176v-.996l1.68-.4v-11.485l-1.68-.4v-.996h5.176v.996l-1.68.4v11.485l1.68.4zM-293.147 486.529q0 .947-.342 1.7-.332.741-.957 1.259t-1.523.791q-.899.264-2.022.264-1.084 0-2.031-.176-.938-.166-1.572-.498v-1.738q.332.156.752.312.43.147.898.264t.967.195q.498.068.986.068 1.563 0 2.305-.585.752-.586.752-1.68 0-.528-.147-.918-.136-.39-.498-.713-.351-.332-.947-.635-.596-.312-1.504-.674-.869-.341-1.514-.742-.634-.41-1.054-.918-.41-.508-.615-1.152-.196-.645-.196-1.465 0-.86.313-1.533.312-.674.879-1.133.566-.469 1.347-.713.791-.244 1.739-.244 1.162 0 2.09.225.927.214 1.65.556l-.654 1.524q-.635-.284-1.446-.489-.8-.214-1.66-.214-1.191 0-1.846.556-.654.547-.654 1.485 0 .556.147.966.146.4.488.733.342.322.898.615.567.283 1.387.605.889.352 1.553.723.674.371 1.123.84t.674 1.084q.234.615.234 1.455M-280.14 490.347h-1.816v-6.66h-6.504v6.66h-1.816V476.07h1.816v6.016h6.504v-6.016h1.817zM-268.84 490.347h-7.413V476.07h7.413v1.602h-5.596v4.414h5.225v1.582h-5.225v5.078h5.596zM-255.188 483.072q0 1.807-.469 3.174-.469 1.357-1.357 2.275-.889.908-2.188 1.367-1.289.46-2.93.46h-3.574V476.07h3.975q1.494 0 2.705.45 1.211.448 2.06 1.337.85.879 1.31 2.188.468 1.308.468 3.027m-1.924.059q0-1.426-.322-2.461-.322-1.045-.938-1.72-.615-.673-1.513-.995-.899-.332-2.041-.332h-1.963v11.162h1.582q2.578 0 3.887-1.426 1.308-1.426 1.308-4.228" style="font-size:20px;line-height:1.25" transform="rotate(-90)"/></g><g style="font-style:normal;font-variant:normal;font-weight:400;font-stretch:normal;line-height:0%;font-family:&quot;Droid Sans&quot;;-inkscape-font-specification:&quot;Droid Sans&quot;;text-align:start;letter-spacing:0;word-spacing:0;text-anchor:start;fill:#000;fill-opacity:1;stroke:none"><path d="M-366.68 521.401c0-6.601-1.477-10.64-8.177-11.823v-.394c7.094-1.478 8.178-6.207 8.178-13.005v-16.75c0-5.813 1.675-9.261 6.897-10.64v-.198c-10.543-.492-13.203 3.744-13.203 14.287v15.862c0 6.404-1.182 9.163-7.488 10.444v.394c5.715.493 7.488 5.518 7.488 10.444v17.735c0 10.05 3.547 12.808 13.498 12.808v-.197c-5.714-1.577-7.192-4.63-7.192-10.64z" aria-label="{" style="font-style:normal;font-variant:normal;font-weight:400;font-stretch:normal;font-size:98.52592468px;line-height:1.25;font-family:&quot;ITC New Baskerville Std&quot;;-inkscape-font-specification:&quot;ITC New Baskerville Std&quot;" transform="scale(-1.22552 .81598)"/></g><g aria-label="FIN-WAIT-1" style="font-style:normal;font-variant:normal;font-weight:400;font-stretch:normal;line-height:0%;font-family:&quot;Droid Sans&quot;;-inkscape-font-specification:&quot;Droid Sans&quot;;text-align:start;letter-spacing:0;word-spacing:0;text-anchor:start;fill:#000;fill-opacity:1;stroke:none"><path d="M477.681 422.974h-1.816v-14.278h7.412v1.602h-5.596v5.039h5.225v1.601h-5.225zM489.742 422.974h-5.176v-.996l1.68-.4v-11.485l-1.68-.4v-.997h5.176v.996l-1.68.4v11.485l1.68.4zM503.199 422.974h-2.1l-7.021-11.817H494q.058.752.097 1.494.04.635.059 1.328.03.694.03 1.25v7.745h-1.68v-14.278h2.08l6.992 11.758h.068q-.029-.742-.068-1.465-.01-.312-.03-.635-.01-.332-.029-.654l-.02-.635v-8.369h1.7zM505.933 418.433v-1.641h4.844v1.64zM519.478 408.696h1.924l2.236 8.36q.147.547.284 1.093.146.547.263 1.065.127.508.215.967.098.459.156.83.04-.371.098-.81t.137-.919q.078-.488.166-.986.097-.508.205-.986l1.953-8.614h1.943l-3.584 14.278h-1.836l-2.48-9.16q-.137-.499-.264-1.026t-.234-.986q-.117-.537-.225-1.045-.107.498-.215 1.035-.097.459-.224 1.006-.117.547-.254 1.074l-2.363 9.102h-1.836l-3.77-14.278h1.924l2.178 8.682q.117.45.215.937.097.479.175.957.088.479.157.928.068.44.117.81.049-.36.117-.84.078-.478.176-1.005t.205-1.064q.117-.547.244-1.026zM539.185 422.974l-1.562-4.424H532.3l-1.582 4.424h-1.835l5.244-14.336h1.66l5.254 14.336zm-2.138-6.036-1.446-4.14q-.058-.176-.146-.43l-.166-.547q-.088-.293-.176-.605-.088-.322-.166-.625-.068.303-.156.625t-.176.625q-.088.293-.176.547-.078.244-.137.41l-1.416 4.14zM547.008 422.974h-5.176v-.996l1.68-.4v-11.485l-1.68-.4v-.997h5.176v.996l-1.68.4v11.485l1.68.4zM553.931 422.974h-1.826v-12.676h-4.082v-1.602h9.98v1.602h-4.072zM558.043 418.433v-1.641h4.843v1.64zM570.63 422.974h-1.718v-9.815000000000001l.02-.947q.019-.479.029-.908.02-.44.029-.772-.166.176-.293.303t-.264.244l-.273.254-.352.303-1.445 1.181-.938-1.2 3.74-2.92h1.466z" style="font-size:20px;line-height:1.25"/></g><g style="font-style:normal;font-variant:normal;font-weight:400;font-stretch:normal;line-height:0%;font-family:&quot;Droid Sans&quot;;-inkscape-font-specification:&quot;Droid Sans&quot;;text-align:start;letter-spacing:0;word-spacing:0;text-anchor:start;fill:#000;fill-opacity:1;stroke:none"><path d="M-385.761 584.843c0-6.945-1.555-11.194-8.603-12.438v-.415c7.463-1.555 8.603-6.53 8.603-13.682v-17.621c0-6.116 1.762-9.744 7.256-11.195v-.207c-11.091-.518-13.89 3.939-13.89 15.03v16.688c0 6.737-1.244 9.64-7.878 10.987v.415c6.012.518 7.878 5.804 7.878 10.987v18.658c0 10.572 3.732 13.474 14.2 13.474v-.207c-6.011-1.658-7.566-4.872-7.566-11.194z" aria-label="{" style="font-style:normal;font-variant:normal;font-weight:400;font-stretch:normal;font-size:103.6531601px;line-height:1.25;font-family:&quot;ITC New Baskerville Std&quot;;-inkscape-font-specification:&quot;ITC New Baskerville Std&quot;" transform="scale(-1.1649 .85844)"/></g><g aria-label="TIME-WAIT" style="font-style:normal;font-variant:normal;font-weight:400;font-stretch:normal;line-height:0%;font-family:&quot;Droid Sans&quot;;-inkscape-font-specification:&quot;Droid Sans&quot;;text-align:start;letter-spacing:0;word-spacing:0;text-anchor:start;fill:#000;fill-opacity:1;stroke:none"><path d="M480.025 498.545H478.2v-12.676h-4.082v-1.601h9.98v1.601h-4.072zM490.289 498.545h-5.176v-.996l1.68-.4v-11.485l-1.68-.4v-.996h5.176v.996l-1.68.4v11.485l1.68.4zM498.95 498.545l-4.325-12.5h-.078q.058.723.097 1.436.04.615.059 1.298.03.674.03 1.23v8.536h-1.68v-14.277h2.695l4.023 11.64h.059l4.043-11.64h2.695v14.277h-1.816v-8.662q0-.508.02-1.162.019-.654.048-1.25.04-.694.068-1.406h-.078l-4.365 12.48zM517.886 498.545h-7.412v-14.277h7.412v1.601h-5.595v4.414h5.224v1.582h-5.224v5.078h5.595zM519.879 494.004v-1.64h4.843v1.64zM533.424 484.268h1.923l2.237 8.359q.146.547.283 1.094.146.547.264 1.064.127.508.214.967.098.459.157.83.039-.371.097-.81t.137-.918q.078-.489.166-.987.098-.508.205-.986l1.953-8.613h1.944l-3.584 14.277h-1.836l-2.48-9.16q-.138-.498-.265-1.026l-.234-.986q-.117-.537-.225-1.045-.107.498-.214 1.035-.098.46-.225 1.006-.117.547-.254 1.074l-2.363 9.102h-1.836l-3.77-14.277h1.924l2.178 8.681q.117.45.215.938.097.478.176.957.087.478.156.928.068.439.117.81.049-.361.117-.84.078-.478.176-1.006.098-.527.205-1.064.117-.547.244-1.025zM553.13 498.545l-1.562-4.424h-5.322l-1.582 4.424h-1.836l5.244-14.336h1.66l5.254 14.336zm-2.138-6.035-1.445-4.14q-.059-.177-.147-.43l-.166-.547q-.088-.293-.176-.606-.088-.322-.166-.625-.068.303-.156.625t-.176.625q-.088.293-.176.547-.078.244-.136.41l-1.416 4.14zM560.953 498.545h-5.176v-.996l1.68-.4v-11.485l-1.68-.4v-.996h5.176v.996l-1.68.4v11.485l1.68.4zM567.877 498.545h-1.827v-12.676h-4.082v-1.601h9.98v1.601h-4.071z" style="font-size:20px;line-height:1.25"/></g><g style="font-style:normal;font-variant:normal;font-weight:400;font-stretch:normal;line-height:0%;font-family:&quot;Droid Sans&quot;;-inkscape-font-specification:&quot;Droid Sans&quot;;text-align:start;letter-spacing:0;word-spacing:0;text-anchor:start;fill:#000;fill-opacity:1;stroke:none"><path d="M139.663 513.3c0-7.176-1.607-11.566-8.89-12.852v-.428c7.712-1.606 8.89-6.747 8.89-14.137v-18.206c0-6.319 1.82-10.067 7.497-11.566v-.215c-11.46-.535-14.351 4.07-14.351 15.53v17.242c0 6.961-1.285 9.96-8.14 11.352v.428c6.212.536 8.14 5.998 8.14 11.353v19.277c0 10.924 3.855 13.922 14.672 13.922v-.214c-6.212-1.713-7.818-5.033-7.818-11.566z" aria-label="{" style="font-style:normal;font-variant:normal;font-weight:400;font-stretch:normal;font-size:107.09627533px;line-height:1.25;font-family:&quot;ITC New Baskerville Std&quot;;-inkscape-font-specification:&quot;ITC New Baskerville Std&quot;" transform="scale(1.12745 .88696)"/></g><g aria-label="LAST-ACK" style="font-style:normal;font-variant:normal;font-weight:400;font-stretch:normal;line-height:0%;font-family:&quot;Droid Sans&quot;;-inkscape-font-specification:&quot;Droid Sans&quot;;text-align:start;letter-spacing:0;word-spacing:0;text-anchor:start;fill:#000;fill-opacity:1;stroke:none"><path d="M48.638 451.045v-14.277h1.817v12.656h5.595v1.621zM66.842 451.045l-1.563-4.424h-5.322l-1.582 4.424h-1.836l5.244-14.336h1.66l5.254 14.336zm-2.14-6.035-1.444-4.14-.147-.43-.166-.547q-.088-.293-.176-.606-.088-.322-.166-.625-.068.303-.156.625t-.176.625q-.088.293-.176.547-.078.244-.136.41l-1.416 4.14zM78.15 447.227q0 .947-.342 1.699-.332.742-.957 1.26-.625.517-1.523.79-.899.264-2.022.264-1.084 0-2.03-.175-.938-.166-1.573-.498v-1.739q.332.157.752.313.43.146.898.263t.967.196q.498.068.986.068 1.563 0 2.305-.586.752-.586.752-1.68 0-.527-.146-.917-.137-.391-.499-.713-.351-.332-.947-.635-.596-.313-1.504-.674-.869-.342-1.513-.742-.635-.41-1.055-.918-.41-.508-.615-1.152-.196-.645-.196-1.465 0-.86.313-1.533.312-.674.879-1.133.566-.47 1.347-.713.791-.244 1.739-.244 1.162 0 2.09.224.927.215 1.65.557l-.654 1.523q-.635-.283-1.446-.488-.8-.215-1.66-.215-1.191 0-1.846.557-.654.547-.654 1.484 0 .557.147.967.146.4.488.732.342.323.898.616.567.283 1.387.605.889.352 1.553.723.674.37 1.123.84.45.468.674 1.084.234.615.234 1.455M85.181 451.045h-1.826v-12.676h-4.082v-1.601h9.98v1.601h-4.072zM89.293 446.504v-1.64h4.843v1.64zM105.24 451.045l-1.563-4.424h-5.322l-1.582 4.424h-1.836l5.244-14.336h1.66l5.254 14.336zm-2.139-6.035-1.445-4.14q-.059-.177-.147-.43l-.166-.547q-.087-.293-.175-.606-.088-.322-.166-.625-.069.303-.157.625-.087.322-.175.625-.088.293-.176.547-.078.244-.137.41l-1.416 4.14zM114.634 438.164q-1.044 0-1.894.4-.85.391-1.455 1.133-.596.743-.928 1.807-.322 1.064-.322 2.402 0 1.377.283 2.452.293 1.064.87 1.796.575.733 1.435 1.114.86.38 2.011.38.87 0 1.65-.165.782-.176 1.544-.4v1.581q-.381.147-.762.264-.38.107-.8.176-.41.068-.89.097-.468.04-1.044.04-1.602 0-2.774-.528-1.172-.527-1.943-1.494-.762-.967-1.133-2.324-.371-1.358-.371-3.008 0-1.621.42-2.969.43-1.348 1.25-2.314.83-.967 2.05-1.504 1.221-.537 2.803-.537 1.055 0 2.012.214.957.215 1.729.625l-.762 1.524q-.615-.313-1.338-.537t-1.64-.225M130.543 451.045h-2.06l-4.405-6.816-1.358 1.113v5.703h-1.816v-14.277h1.816v7.138l1.182-1.64 4.414-5.498h2.041l-5.078 6.22z" style="font-size:20px;line-height:1.25"/></g><use xlink:href="#c" width="744.094" height="1052.362" transform="translate(0 240)"/><use xlink:href="#d" width="744.094" height="1052.362" transform="translate(0 240)"/><use xlink:href="#e" width="744.094" height="1052.362" transform="translate(0 240)"/><g aria-label="SYN" style="font-style:normal;font-variant:normal;font-weight:400;font-stretch:normal;font-size:18px;line-height:0%;font-family:&quot;Droid Sans&quot;;-inkscape-font-specification:&quot;Droid Sans&quot;;text-align:start;letter-spacing:0;word-spacing:0;text-anchor:start;fill:#000;fill-opacity:1;stroke:none"><path d="M374.004 561.772q.115.845-.098 1.557-.205.703-.7 1.24-.493.538-1.261.891-.77.345-1.77.482-.967.132-1.833.091-.857-.034-1.463-.252l-.212-1.55q.315.099.709.187.4.078.833.125.432.048.886.057.452 0 .888-.06 1.393-.19 1.983-.804.6-.614.466-1.589-.064-.47-.243-.8-.17-.332-.53-.576-.355-.253-.923-.45-.57-.206-1.423-.417-.817-.2-1.44-.478-.616-.288-1.053-.69-.428-.402-.689-.952-.253-.55-.353-1.282-.105-.767.092-1.406.196-.639.645-1.117.448-.487 1.115-.8.676-.314 1.52-.43 1.036-.142 1.891-.055.854.079 1.54.296l-.398 1.438q-.6-.175-1.348-.26-.74-.093-1.507.012-1.062.145-1.578.721-.516.568-.402 1.404.068.496.248.844.18.339.525.593.344.246.876.44.54.183 1.31.37.836.205 1.473.455.647.249 1.104.612t.733.884q.284.52.387 1.27zM379.13 558.126l2.08-6.84 1.741-.238-2.82 8.307.678 4.955-1.628.223-.666-4.868-4.96-7.332 1.768-.242zM395.97 562.236l-1.873.256-7.702-9.68-.07.01q.144.663.27 1.32.112.562.214 1.178.11.614.179 1.11l.944 6.906-1.498.205-1.741-12.731 1.855-.254 7.669 9.632.06-.008q-.116-.659-.239-1.298-.047-.278-.104-.563-.049-.295-.105-.58l-.095-.563-.068-.497-.953-6.966 1.515-.207z"/></g><g aria-label="SYN,ACK" style="font-style:normal;font-variant:normal;font-weight:400;font-stretch:normal;font-size:18px;line-height:0%;font-family:&quot;Droid Sans&quot;;-inkscape-font-specification:&quot;Droid Sans&quot;;text-align:start;letter-spacing:0;word-spacing:0;text-anchor:start;fill:#000;fill-opacity:1;stroke:none"><path d="M335.262 611.826q-.116.845-.512 1.473-.387.622-1.007 1.007t-1.455.52q-.833.125-1.835-.012-.966-.132-1.79-.404-.815-.263-1.34-.636l.211-1.55q.277.18.633.37.365.183.769.345.403.161.838.292.436.121.871.181 1.393.19 2.127-.241.742-.431.875-1.406.064-.47-.019-.837-.074-.365-.357-.696-.273-.34-.767-.682-.493-.351-1.259-.784-.733-.41-1.259-.846-.516-.444-.828-.948-.304-.503-.409-1.102-.095-.599.005-1.33.105-.767.466-1.33.361-.562.922-.902.562-.35 1.289-.472.735-.12 1.58-.006 1.036.142 1.836.456.8.304 1.403.697l-.769 1.279q-.531-.33-1.23-.612-.687-.289-1.453-.394-1.063-.145-1.714.271-.65.408-.764 1.244-.068.497.012.88.082.375.346.713.266.329.726.658.47.322 1.163.709.75.422 1.296.834.556.413.9.886t.468 1.049q.134.577.032 1.326zM341.178 609.69l3.841-6.03 1.742.238-4.948 7.245-.677 4.955-1.629-.223.666-4.867-2.808-8.395 1.768.242zM356.296 618.172l-1.872-.256-4.82-11.393-.07-.01q-.039.677-.095 1.344-.042.57-.11 1.191-.058.622-.126 1.119l-.944 6.905-1.498-.205 1.742-12.73 1.854.253 4.801 11.337.061.008q.064-.665.118-1.314.03-.28.051-.57.032-.297.054-.587l.06-.568.068-.497.953-6.966 1.515.207zM361.456 616.767l.103.218q-.186.453-.433.96-.238.51-.52 1.02-.275.513-.574 1.013-.291.51-.576.968l-1.202-.164q.204-.514.404-1.072.21-.556.401-1.116.2-.549.37-1.076.17-.535.303-.987zM371.666 620.275l-.854-4.136-4.746-.649-1.95 3.752-1.637-.224 6.425-12.144 1.48.203 2.936 13.424zm-1.171-5.643-.784-3.868q-.03-.164-.078-.401-.039-.236-.081-.508t-.083-.562q-.04-.298-.072-.577-.098.261-.216.538t-.233.536q-.114.25-.223.466-.1.208-.172.35l-1.768 3.519zM381.614 609.935q-.932-.128-1.738.126-.805.244-1.436.832-.622.59-1.047 1.498-.418.91-.58 2.103-.169 1.228-.047 2.22.131.985.555 1.708.425.724 1.145 1.168.72.445 1.747.585.775.106 1.492.054.718-.062 1.425-.17l-.193 1.411q-.358.085-.712.143-.352.049-.735.059-.374.01-.804-.022-.423-.022-.937-.092-1.428-.195-2.409-.809-.98-.613-1.55-1.569-.562-.955-.727-2.21-.165-1.256.036-2.728.198-1.446.737-2.596.547-1.15 1.397-1.911.858-.761 2.012-1.091t2.564-.137q.94.128 1.768.437.827.308 1.465.768l-.865 1.265q-.51-.353-1.127-.642-.617-.288-1.436-.4zM394.228 623.361l-1.837-.251-3.096-6.616-1.346.827-.696 5.086-1.62-.222 1.742-12.73 1.62.22-.871 6.366 1.254-1.318 4.606-4.365 1.82.25-5.287 4.927z"/></g><g aria-label="ACK" style="font-style:normal;font-variant:normal;font-weight:400;font-stretch:normal;font-size:18px;line-height:0%;font-family:&quot;Droid Sans&quot;;-inkscape-font-specification:&quot;Droid Sans&quot;;text-align:start;letter-spacing:0;word-spacing:0;text-anchor:start;fill:#000;fill-opacity:1;stroke:none"><path d="m219.817 661.075-1.932-3.754-4.746.649-.871 4.138-1.637.223 2.927-13.422 1.48-.203 6.434 12.142zm-2.643-5.12-1.794-3.517q-.073-.15-.183-.365l-.214-.467q-.115-.251-.231-.519-.118-.277-.224-.537-.024.278-.063.576-.04.298-.08.58-.044.271-.09.508-.04.227-.073.383l-.757 3.865zM226.623 648.443q-.932.127-1.64.588-.71.452-1.16 1.188-.44.734-.606 1.724-.158.988.006 2.181.168 1.228.551 2.151.391.914.994 1.497t1.416.817 1.84.095q.775-.107 1.452-.35.675-.252 1.327-.545l.193 1.41q-.322.178-.647.329-.327.142-.693.254-.357.111-.78.196-.414.092-.927.162-1.428.195-2.538-.132t-1.915-1.095q-.797-.77-1.293-1.935-.497-1.165-.698-2.636-.198-1.446.012-2.699.219-1.254.832-2.216.623-.963 1.646-1.591t2.433-.821q.94-.129 1.82-.054t1.618.347l-.494 1.45q-.586-.203-1.258-.315t-1.49 0zM242.38 657.988l-1.838.252-4.758-5.541-1.075 1.158.696 5.085-1.62.222-1.742-12.731 1.62-.222.87 6.366.854-1.607 3.266-5.441 1.82-.25-3.77 6.167z"/></g><path d="m188.571 672.22 228.748 31.292" style="fill:none;stroke:#000;stroke-width:1px;stroke-linecap:butt;stroke-linejoin:miter;stroke-opacity:1;marker-start:none;marker-end:url(#a)"/><path d="m188.571 696.22 228.748 31.292" style="fill:none;stroke:#000;stroke-width:1px;stroke-linecap:butt;stroke-linejoin:miter;stroke-opacity:1;marker-start:none;marker-end:url(#a)"/><g aria-label="SEQ=1" style="font-style:normal;font-variant:normal;font-weight:400;font-stretch:normal;font-size:18px;line-height:0%;font-family:&quot;Droid Sans&quot;;-inkscape-font-specification:&quot;Droid Sans&quot;;text-align:start;letter-spacing:0;word-spacing:0;text-anchor:start;fill:#000;fill-opacity:1;stroke:none"><path d="M355.212 687.54q-.116.845-.512 1.474-.387.621-1.007 1.006-.62.386-1.455.52-.833.125-1.835-.012-.966-.132-1.79-.404-.815-.263-1.34-.636l.211-1.55q.277.18.633.37.365.183.769.345.403.162.838.292.436.122.871.181 1.393.191 2.127-.241.742-.43.875-1.406.064-.47-.019-.836-.074-.365-.357-.697-.273-.339-.767-.681-.493-.352-1.259-.785-.733-.41-1.26-.846-.515-.443-.828-.947-.303-.503-.408-1.103-.095-.599.005-1.33.105-.766.466-1.329.36-.563.922-.903.562-.349 1.289-.471.735-.121 1.58-.006 1.036.142 1.836.455.8.305 1.403.698l-.769 1.278q-.531-.33-1.23-.611-.687-.29-1.453-.395-1.063-.145-1.714.272-.65.408-.765 1.243-.067.497.013.88.082.375.346.713.266.33.726.658.47.322 1.163.71.75.421 1.296.833.556.413.9.886t.468 1.049q.134.577.031 1.326zM363.916 692.2l-6.61-.905 1.742-12.73 6.61.903-.196 1.429-4.99-.683-.538 3.936 4.659.637-.193 1.411-4.66-.637-.619 4.528 4.99.682zM377.981 687.621q-.156 1.141-.508 2.095-.344.956-.87 1.69-.516.729-1.213 1.219t-1.552.71q.262.87.77 1.57.515.708 1.227 1.338l-1.223 1.092q-.81-.758-1.45-1.724-.63-.964-.923-2.131-.15-.003-.335-.02-.175-.014-.332-.036-1.42-.194-2.4-.807-.972-.612-1.542-1.568-.561-.955-.726-2.21-.164-1.265.038-2.746.203-1.48.698-2.636.496-1.166 1.301-1.925t1.913-1.078q1.11-.327 2.529-.133 1.35.185 2.304.794.964.603 1.543 1.56.58.949.762 2.207.193 1.25-.01 2.74m-9.326-1.276q-.163 1.193-.068 2.182.097.98.467 1.714.38.726 1.045 1.18.675.448 1.667.584.993.136 1.755-.115.771-.258 1.324-.857.561-.606.909-1.525.349-.928.512-2.121.164-1.202.076-2.181-.087-.979-.46-1.695-.37-.725-1.037-1.171-.665-.455-1.658-.59-.993-.136-1.764.122-.77.25-1.331.847-.56.588-.916 1.507t-.52 2.12M380.117 686.858l.178-1.298 8.046 1.101-.178 1.298zm-.488 3.57.179-1.306 8.046 1.1-.179 1.307zM394.228 696.346l-1.533-.21 1.088-7.95.11-.8.133-.843q.075-.425.137-.807.07-.389.12-.684-.17.137-.298.234-.13.098-.265.186l-.275.193-.35.227-1.433.877-.69-1.185 3.691-2.148 1.307.18z"/></g><g aria-label="SEQ=2" style="font-style:normal;font-variant:normal;font-weight:400;font-stretch:normal;font-size:18px;line-height:0%;font-family:&quot;Droid Sans&quot;;-inkscape-font-specification:&quot;Droid Sans&quot;;text-align:start;letter-spacing:0;word-spacing:0;text-anchor:start;fill:#000;fill-opacity:1;stroke:none"><path d="M352.6 711.54q-.115.845-.511 1.474-.387.621-1.007 1.006-.62.386-1.455.52-.834.125-1.835-.012-.967-.132-1.79-.404-.816-.263-1.341-.636l.212-1.55q.277.18.632.37.366.183.77.345.403.162.838.292.435.122.87.181 1.394.191 2.127-.241.742-.43.876-1.406.064-.47-.019-.836-.074-.365-.357-.697-.273-.339-.767-.681-.493-.352-1.26-.785-.732-.41-1.258-.846-.516-.443-.829-.947-.304-.503-.408-1.103-.095-.599.005-1.33.105-.766.466-1.329.36-.563.922-.903.562-.349 1.288-.471.736-.121 1.58-.006 1.036.142 1.836.455.801.305 1.404.698l-.77 1.278q-.53-.33-1.228-.611-.688-.29-1.455-.395-1.062-.145-1.713.272-.65.408-.765 1.243-.068.497.013.88.082.375.346.713.265.33.726.658.47.322 1.163.71.75.421 1.296.833.556.413.9.886.342.473.468 1.049.134.577.031 1.326zM361.304 716.2l-6.609-.905 1.742-12.73 6.609.903-.195 1.429-4.99-.683-.538 3.936 4.658.637-.193 1.411-4.658-.637-.62 4.528 4.99.682zM375.37 711.621q-.156 1.141-.508 2.095-.344.956-.87 1.69-.517.729-1.214 1.219-.696.49-1.552.71.263.87.77 1.57.515.708 1.228 1.338L372 721.335q-.81-.758-1.45-1.724-.63-.964-.923-2.131-.15-.003-.335-.02-.175-.014-.332-.036-1.42-.194-2.4-.807-.972-.612-1.542-1.568-.561-.955-.727-2.21-.164-1.265.039-2.746.202-1.48.698-2.636.496-1.166 1.3-1.925.805-.76 1.914-1.078 1.109-.327 2.528-.133 1.35.185 2.304.794.965.603 1.544 1.56.58.949.762 2.207.193 1.25-.01 2.74m-9.326-1.276q-.163 1.193-.068 2.182.097.98.466 1.714.38.726 1.045 1.18.675.448 1.668.584t1.755-.115q.771-.258 1.323-.857.562-.606.91-1.525.348-.928.512-2.121.164-1.202.076-2.181t-.46-1.695q-.37-.725-1.037-1.171-.665-.455-1.658-.59-.993-.136-1.764.122-.77.25-1.332.847-.56.588-.915 1.507-.357.918-.521 2.12M377.506 710.858l.177-1.298 8.047 1.101-.178 1.298zm-.488 3.57.178-1.306 8.046 1.1-.178 1.307zM394.203 720.7l-7.942-1.086.186-1.359 3.502-2.9q.75-.617 1.343-1.13.594-.513 1.027-1.021.442-.508.71-1.039.269-.54.36-1.201.07-.514-.025-.926-.094-.412-.336-.72-.232-.316-.587-.507-.356-.19-.817-.253-.827-.113-1.544.134-.707.24-1.38.681l-.746-1.158q.391-.266.828-.48.44-.225.928-.362t1.018-.18q.53-.051 1.097.026.836.114 1.474.441.647.328 1.057.837.41.5.576 1.17.175.662.067 1.455-.101.74-.428 1.378-.318.64-.817 1.237-.489.59-1.144 1.165-.647.577-1.396 1.193l-2.803 2.27-.01.069 6 .82z"/></g><path d="m-96.299 284.447 7.07 7.073 7.073-7.073-7.073-7.07zm-14.142 14.143 7.07 7.07 7.072-7.07-7.072-7.07zm-14.143 14.142 7.072 7.07 7.07-7.07-7.07-7.072zm-14.143 14.141 7.073 7.072 7.07-7.072-7.07-7.07z" style="color:#000;font-style:normal;font-variant:normal;font-weight:400;font-stretch:normal;font-size:medium;line-height:normal;font-family:sans-serif;font-variant-ligatures:normal;font-variant-position:normal;font-variant-caps:normal;font-variant-numeric:normal;font-variant-alternates:normal;font-feature-settings:normal;text-indent:0;text-align:start;text-decoration:none;text-decoration-line:none;text-decoration-style:solid;text-decoration-color:#000;letter-spacing:normal;word-spacing:normal;text-transform:none;writing-mode:lr-tb;direction:ltr;text-orientation:mixed;dominant-baseline:auto;baseline-shift:baseline;text-anchor:start;white-space:normal;shape-padding:0;clip-rule:nonzero;display:inline;overflow:visible;visibility:visible;opacity:1;isolation:auto;mix-blend-mode:normal;color-interpolation:sRGB;color-interpolation-filters:linearRGB;solid-color:#000;solid-opacity:1;vector-effect:none;fill:#c90000;fill-opacity:1;fill-rule:nonzero;stroke:none;stroke-width:10;stroke-linecap:butt;stroke-linejoin:miter;stroke-miterlimit:4;stroke-dasharray:10.00000038,10.00000038;stroke-dashoffset:77;stroke-opacity:1;color-rendering:auto;image-rendering:auto;shape-rendering:auto;text-rendering:auto" transform="rotate(16.44 -1988.938 1635.386)scale(.40113)"/><path d="m-138.2 284.447 7.071 7.073 7.07-7.073-7.07-7.07zm14.141 14.143 7.073 7.07 7.07-7.07-7.07-7.07zm14.143 14.142 7.072 7.07 7.07-7.07-7.07-7.072zm14.143 14.141 7.07 7.072 7.072-7.072-7.072-7.07z" style="color:#000;font-style:normal;font-variant:normal;font-weight:400;font-stretch:normal;font-size:medium;line-height:normal;font-family:sans-serif;font-variant-ligatures:normal;font-variant-position:normal;font-variant-caps:normal;font-variant-numeric:normal;font-variant-alternates:normal;font-feature-settings:normal;text-indent:0;text-align:start;text-decoration:none;text-decoration-line:none;text-decoration-style:solid;text-decoration-color:#000;letter-spacing:normal;word-spacing:normal;text-transform:none;writing-mode:lr-tb;direction:ltr;text-orientation:mixed;dominant-baseline:auto;baseline-shift:baseline;text-anchor:start;white-space:normal;shape-padding:0;clip-rule:nonzero;display:inline;overflow:visible;visibility:visible;opacity:1;isolation:auto;mix-blend-mode:normal;color-interpolation:sRGB;color-interpolation-filters:linearRGB;solid-color:#000;solid-opacity:1;vector-effect:none;fill:#c90000;fill-opacity:1;fill-rule:nonzero;stroke:none;stroke-width:10;stroke-linecap:butt;stroke-linejoin:miter;stroke-miterlimit:4;stroke-dasharray:10.00000038,10.00000038;stroke-dashoffset:77;stroke-opacity:1;color-rendering:auto;image-rendering:auto;shape-rendering:auto;text-rendering:auto" transform="rotate(16.44 -1988.938 1635.386)scale(.40113)"/><path d="m310 737.648 107.32 15.864" style="fill:none;stroke:#000;stroke-width:1px;stroke-linecap:butt;stroke-linejoin:miter;stroke-opacity:1;marker-start:none;marker-end:url(#a)"/><g aria-label="SEQ=3" style="font-style:normal;font-variant:normal;font-weight:400;font-stretch:normal;font-size:18px;line-height:0%;font-family:&quot;Droid Sans&quot;;-inkscape-font-specification:&quot;Droid Sans&quot;;text-align:start;letter-spacing:0;word-spacing:0;text-anchor:start;fill:#000;fill-opacity:1;stroke:none"><path d="M352.618 736.826q-.115.845-.512 1.473-.387.622-1.007 1.007t-1.455.52q-.833.125-1.835-.012-.966-.132-1.79-.404-.815-.263-1.34-.636l.211-1.55q.277.18.633.37.365.183.769.345.403.161.838.292.436.121.871.181 1.393.19 2.127-.241.742-.431.875-1.406.064-.47-.019-.837-.074-.365-.357-.696-.273-.34-.767-.682-.493-.351-1.259-.784-.733-.41-1.259-.846-.516-.444-.828-.948-.304-.503-.408-1.102-.096-.599.005-1.33.104-.767.465-1.33.361-.562.922-.902.562-.35 1.289-.472.735-.12 1.58-.006 1.036.142 1.836.456.8.304 1.403.697l-.769 1.279q-.531-.33-1.229-.612-.688-.289-1.454-.394-1.063-.145-1.714.271-.65.408-.764 1.244-.068.497.012.88.082.375.346.713.266.329.726.658.471.322 1.163.709.75.422 1.297.834.555.413.898.886.344.473.47 1.049.133.577.03 1.326zM361.322 741.485l-6.61-.904 1.742-12.731 6.61.904-.196 1.428-4.99-.682-.538 3.936 4.659.637-.193 1.41-4.66-.637-.619 4.528 4.99.683zM375.388 736.907q-.157 1.14-.509 2.095-.343.955-.87 1.69-.516.728-1.213 1.218t-1.552.71q.262.87.77 1.57.515.709 1.227 1.339l-1.223 1.092q-.81-.758-1.45-1.724-.63-.965-.923-2.131-.15-.003-.335-.02-.175-.014-.332-.036-1.419-.194-2.4-.807-.972-.612-1.542-1.569-.56-.955-.726-2.21-.164-1.265.038-2.745.203-1.48.698-2.637.497-1.165 1.301-1.924.805-.76 1.913-1.078 1.11-.327 2.529-.133 1.35.185 2.304.794.964.602 1.543 1.56.58.948.763 2.206.192 1.25-.011 2.74m-9.327-1.276q-.163 1.193-.067 2.182.096.98.466 1.714.38.726 1.045 1.18.675.448 1.668.584t1.754-.115q.772-.258 1.324-.857.562-.606.91-1.526.348-.928.511-2.12.164-1.202.077-2.181t-.46-1.696q-.371-.724-1.038-1.17-.665-.455-1.658-.591t-1.764.122q-.77.25-1.331.847-.56.59-.916 1.507-.356.918-.52 2.12M377.523 736.144l.178-1.298 8.046 1.1-.177 1.298zm-.488 3.57.179-1.306 8.046 1.1-.179 1.307zM395.145 736.177q-.087.635-.358 1.13-.272.496-.69.829-.41.334-.95.518-.538.174-1.17.194l-.007.052q1.515.403 2.208 1.305.693.893.52 2.156-.114.836-.496 1.493-.374.659-1.018 1.085t-1.561.585-2.12-.006q-.949-.13-1.773-.394-.816-.262-1.503-.755l.203-1.48q.703.504 1.552.842.859.339 1.669.45.8.11 1.408.015.607-.094 1.026-.365.427-.27.666-.716.247-.446.327-1.03.08-.591-.097-1.041-.168-.458-.558-.786-.389-.337-.99-.553-.59-.214-1.366-.32l-1.158-.158.18-1.315 1.158.158q.705.097 1.278-.003.572-.099.982-.37.419-.272.67-.69.253-.418.326-.949.062-.453-.046-.831-.108-.379-.362-.662-.253-.291-.636-.477-.382-.185-.87-.252-.932-.127-1.686.07-.745.192-1.454.574l-.652-1.198q.368-.225.8-.405.442-.18.945-.288.504-.117 1.058-.148.563-.03 1.173.054.94.129 1.613.46.682.333 1.103.825.421.484.585 1.1.166.609.072 1.296z"/></g><g aria-label="(shortened)" style="font-style:normal;font-variant:normal;font-weight:400;font-stretch:normal;line-height:0%;font-family:&quot;Droid Sans&quot;;-inkscape-font-specification:&quot;Droid Sans&quot;;text-align:start;letter-spacing:0;word-spacing:0;text-anchor:start;fill:#000;fill-opacity:1;stroke:none"><path d="M487.154 508.71q0-.854.124-1.682.123-.834.375-1.613.253-.786.636-1.504.39-.724.923-1.36h1.176q-.957 1.32-1.456 2.898-.492 1.58-.492 3.247 0 .814.123 1.62.13.807.369 1.58.246.772.608 1.497.363.724.834 1.367h-1.162q-.533-.615-.923-1.32-.383-.704-.636-1.47-.252-.772-.375-1.592-.124-.82-.124-1.668M496.486 510.487q0 .547-.199.957-.198.41-.574.69-.37.274-.895.411-.527.137-1.183.137-.745 0-1.278-.123-.534-.116-.937-.349v-1.135q.212.11.472.22.26.102.547.184t.588.136q.307.048.608.048.444 0 .752-.075.314-.075.506-.212.198-.144.287-.342.089-.205.089-.45 0-.213-.069-.384-.068-.17-.253-.335-.177-.17-.492-.341-.314-.171-.806-.383t-.89-.417q-.389-.205-.662-.458-.274-.253-.424-.581-.144-.335-.144-.793 0-.479.185-.848.191-.376.533-.629t.82-.383q.48-.13 1.067-.13.663 0 1.21.144.554.144 1.046.376l-.43 1.005q-.445-.198-.917-.342-.465-.15-.95-.15-.697 0-1.032.232-.335.226-.335.65 0 .239.075.416.082.178.273.335.192.158.513.322.321.157.8.355.492.205.875.41.39.205.663.465.273.253.417.581t.144.786M503 512.545v-4.833q0-.889-.362-1.333-.356-.444-1.121-.444-.554 0-.93.177-.376.178-.608.527-.226.348-.328.854-.096.506-.096 1.162v3.89h-1.244v-10.637h1.244v3.159l-.055.984h.069q.17-.294.403-.506.24-.219.52-.362.28-.144.594-.212.315-.069.643-.069 1.25 0 1.88.657.635.65.635 2.085v4.901zM512.687 508.778q0 .937-.233 1.668-.225.725-.656 1.224-.424.492-1.032.752t-1.367.26q-.704 0-1.3-.26-.594-.26-1.031-.752-.431-.499-.677-1.224-.24-.731-.24-1.668 0-.93.226-1.647.233-.725.656-1.217.424-.499 1.033-.752.615-.26 1.374-.26.704 0 1.298.26.595.253 1.026.752.437.492.677 1.217.246.718.246 1.647m-5.25 0q0 1.43.465 2.154.471.718 1.524.718t1.51-.718q.466-.725.466-2.154t-.472-2.132q-.465-.711-1.518-.711t-1.517.71q-.458.705-.458 2.133M517.91 504.902q.198 0 .444.021.246.014.424.048l-.165 1.148q-.19-.034-.396-.054-.198-.028-.376-.028-.43 0-.786.178-.356.17-.615.5-.253.32-.397.778-.137.452-.137 1.005v4.047h-1.244v-7.506h1.012l.15 1.374h.055q.171-.294.362-.567.199-.274.438-.479.246-.212.547-.335.3-.13.683-.13M522.51 511.663q.123 0 .273-.013.158-.014.301-.035.144-.02.26-.048.123-.027.185-.047v.943q-.09.041-.226.082-.137.041-.3.068-.165.035-.343.048-.177.02-.348.02-.424 0-.786-.109t-.63-.376q-.26-.266-.41-.717-.15-.458-.15-1.149v-4.354h-1.06v-.554l1.06-.533.533-1.572h.718v1.722h1.887v.937h-1.887v4.354q0 .663.212.998.219.335.71.335M527.965 512.682q-.752 0-1.374-.253t-1.073-.738q-.445-.486-.69-1.204-.247-.717-.247-1.64 0-.93.226-1.661.225-.732.636-1.238.41-.512.977-.779.574-.267 1.265-.267.677 0 1.217.247.54.239.916.683.376.438.574 1.06.205.615.205 1.367v.772h-4.73q.034 1.32.553 1.942.526.622 1.559.622.348 0 .642-.034.301-.035.574-.096.28-.068.54-.164.26-.103.527-.226v1.108q-.274.13-.54.225-.26.096-.54.158-.274.061-.574.088-.294.028-.643.028m-.308-6.747q-.779 0-1.237.533-.451.533-.526 1.552h3.363q0-.465-.096-.848-.089-.39-.287-.663-.191-.274-.492-.424-.3-.15-.725-.15M537.18 512.545v-4.833q0-.889-.362-1.333-.356-.444-1.122-.444-.553 0-.93.177-.375.178-.608.527-.225.348-.328.854-.095.506-.095 1.162v3.89h-1.245v-7.506h1.012l.178 1.012h.068q.171-.294.404-.506.239-.219.52-.362.28-.144.594-.212.314-.069.642-.069 1.251 0 1.88.657.636.65.636 2.085v4.901zM543.715 512.682q-.752 0-1.374-.253t-1.073-.738q-.445-.486-.69-1.204-.247-.717-.247-1.64 0-.93.226-1.661.225-.732.636-1.238.41-.512.977-.779.574-.267 1.265-.267.677 0 1.217.247.54.239.916.683.376.438.574 1.06.205.615.205 1.367v.772h-4.73q.034 1.32.553 1.942.526.622 1.559.622.348 0 .642-.034.301-.035.574-.096.28-.068.54-.164.26-.103.527-.226v1.108q-.274.13-.54.225-.26.096-.54.158-.274.061-.574.088-.294.028-.643.028m-.308-6.747q-.779 0-1.237.533-.451.533-.526 1.552h3.363q0-.465-.096-.848-.089-.39-.287-.663-.191-.274-.492-.424-.3-.15-.725-.15M552.875 511.54h-.055q-.15.233-.355.444-.198.206-.465.363-.26.157-.588.246t-.738.089q-.636 0-1.162-.246t-.902-.732q-.376-.492-.582-1.217-.205-.724-.205-1.681 0-.964.205-1.689.206-.731.582-1.223t.902-.739q.526-.252 1.162-.252.403 0 .731.088.329.09.588.24.267.15.472.348.205.199.355.417h.082l-.04-.444-.028-.362q-.014-.192-.014-.301v-2.98h1.245v10.636h-1.005zm-1.962.11q.52 0 .875-.158.363-.157.581-.478.226-.322.328-.8.11-.485.124-1.128v-.28q0-.69-.096-1.224-.09-.54-.315-.902-.218-.37-.588-.554-.369-.191-.922-.191-.923 0-1.36.745-.431.745-.431 2.14 0 1.428.43 2.132.438.698 1.374.698M558.911 508.71q0 .848-.123 1.668t-.383 1.593q-.252.765-.642 1.47-.383.704-.916 1.319h-1.162q.471-.643.834-1.367.362-.725.608-1.497t.37-1.58q.122-.806.122-1.62 0-1.668-.492-3.247t-1.456-2.898h1.176q.533.636.916 1.36.39.718.642 1.504.26.78.383 1.613.123.828.123 1.682" style="font-size:14px;line-height:1.25"/></g><path d="M35 536.648h546.429" style="fill:none;stroke:#000;stroke-width:1;stroke-linecap:butt;stroke-linejoin:miter;stroke-miterlimit:4;stroke-dasharray:3,3;stroke-dashoffset:0;stroke-opacity:1"/></g></svg>