<svg xmlns="http://www.w3.org/2000/svg" xmlns:xlink="http://www.w3.org/1999/xlink" width="500" height="492" viewBox="0 0 543.94 535.237"><defs><marker id="a" orient="auto" refX="0" refY="0" style="overflow:visible"><path d="m0 0 5-5-17.5 5L5 5Z" style="fill-rule:evenodd;stroke:#000;stroke-width:1.00000003pt" transform="rotate(180 -5 0)scale(.8)"/></marker></defs><g transform="translate(-43.199 -214.893)"><path d="M176.857 222.362v519.286M428.857 222.362v519.286" style="fill:none;stroke:#000;stroke-width:6;stroke-linecap:round;stroke-linejoin:miter;stroke-miterlimit:4;stroke-dasharray:none;stroke-opacity:1"/><path id="d" d="m188.571 250.22 228.748 31.292" style="fill:none;stroke:#000;stroke-width:1px;stroke-linecap:butt;stroke-linejoin:miter;stroke-opacity:1;marker-start:none;marker-end:url(#a)"/><path id="e" d="m188.571 274.22 228.748 31.292" style="fill:none;stroke:#000;stroke-width:1px;stroke-linecap:butt;stroke-linejoin:miter;stroke-opacity:1;marker-start:none;marker-end:url(#a)"/><path d="M417.32 312.22 188.57 343.511" style="fill:none;stroke:#000;stroke-width:1px;stroke-linecap:butt;stroke-linejoin:miter;stroke-opacity:1;marker-start:none;marker-end:url(#a)"/><g aria-label="FIN" style="font-style:normal;font-variant:normal;font-weight:400;font-stretch:normal;font-size:18px;line-height:0%;font-family:&quot;Droid Sans&quot;;-inkscape-font-specification:&quot;Droid Sans&quot;;text-align:start;letter-spacing:0;word-spacing:0;text-anchor:start;fill:#000;fill-opacity:1;stroke:none"><path d="m213.983 337.301-1.62.222-1.741-12.731 6.61-.904.195 1.428-4.99.682.615 4.494 4.658-.638.196 1.429-4.66.637zM224.737 335.83l-4.615.632-.121-.889 1.449-.562-1.401-10.24-1.547-.152-.121-.888 4.615-.632.121.888-1.449.562 1.401 10.24 1.547.153zM236.737 334.189l-1.872.256-7.703-9.68-.07.01q.145.663.27 1.32.112.561.214 1.177.11.615.179 1.111l.945 6.906-1.498.205-1.742-12.731 1.855-.254 7.67 9.631.06-.008q-.117-.658-.24-1.298-.046-.277-.103-.562-.05-.295-.106-.58l-.095-.564-.068-.496-.953-6.966 1.515-.208z"/></g><path d="m188.571 348.22 228.748 31.292" style="fill:none;stroke:#000;stroke-width:1px;stroke-linecap:butt;stroke-linejoin:miter;stroke-opacity:1;marker-start:none;marker-end:url(#a)"/><g aria-label="FIN,ACK" style="font-style:normal;font-variant:normal;font-weight:400;font-stretch:normal;font-size:18px;line-height:0%;font-family:&quot;Droid Sans&quot;;-inkscape-font-specification:&quot;Droid Sans&quot;;text-align:start;letter-spacing:0;word-spacing:0;text-anchor:start;fill:#000;fill-opacity:1;stroke:none"><path d="m333.542 364.535-1.62-.221 1.742-12.732 6.61.905-.196 1.428-4.99-.683-.614 4.493 4.659.638-.196 1.428-4.659-.637zM344.297 366.006l-4.616-.631.122-.888 1.547-.152 1.4-10.241-1.449-.562.122-.888 4.615.631-.121.888-1.547.153-1.4 10.24 1.448.562zM356.296 367.648l-1.872-.256-4.82-11.393-.07-.01q-.039.677-.095 1.344-.042.57-.11 1.191-.058.622-.126 1.118l-.944 6.906-1.498-.205 1.742-12.731 1.854.254 4.8 11.337.062.008q.064-.665.118-1.315.03-.28.051-.57.032-.296.054-.586l.06-.569.068-.496.953-6.966 1.515.207zM361.456 366.242l.103.219q-.186.453-.433.96-.238.51-.52 1.02-.275.513-.574 1.013-.291.51-.576.968l-1.202-.164q.204-.514.404-1.072.21-.557.401-1.116.2-.55.37-1.076.17-.535.303-.987zM371.666 369.75l-.854-4.135-4.746-.65-1.95 3.753-1.637-.224 6.425-12.144 1.48.203 2.936 13.424zm-1.171-5.642-.784-3.868q-.03-.164-.078-.401-.039-.236-.081-.508t-.083-.562q-.04-.298-.072-.577-.098.261-.216.538t-.233.536q-.114.25-.223.466-.1.208-.172.35l-1.768 3.519zM381.614 359.41q-.932-.127-1.738.126-.805.245-1.436.833-.622.59-1.047 1.498-.418.91-.58 2.103-.169 1.228-.047 2.22.131.985.555 1.708.425.724 1.145 1.168.72.445 1.747.585.775.106 1.492.053.718-.061 1.425-.168l-.193 1.41q-.358.085-.712.143-.352.049-.735.059-.374.01-.804-.022-.423-.022-.937-.092-1.428-.196-2.409-.809t-1.55-1.57q-.562-.954-.727-2.21t.036-2.727q.198-1.446.737-2.596.547-1.15 1.397-1.912.858-.76 2.012-1.09t2.564-.137q.94.128 1.768.437.827.308 1.465.768l-.865 1.265q-.51-.353-1.127-.642-.617-.288-1.436-.4M394.228 372.837l-1.837-.251-3.096-6.616-1.346.827-.696 5.086-1.62-.222 1.742-12.73 1.62.22-.871 6.366 1.254-1.319 4.606-4.364 1.82.25-5.287 4.927z"/></g><path d="M417.32 386.22 280 407.511" style="fill:none;stroke:#000;stroke-width:1px;stroke-linecap:butt;stroke-linejoin:miter;stroke-opacity:1;marker-start:none;marker-end:url(#a)"/><g aria-label="ACK" style="font-style:normal;font-variant:normal;font-weight:400;font-stretch:normal;font-size:18px;line-height:0%;font-family:&quot;Droid Sans&quot;;-inkscape-font-specification:&quot;Droid Sans&quot;;text-align:start;letter-spacing:0;word-spacing:0;text-anchor:start;fill:#000;fill-opacity:1;stroke:none"><path d="m373.407 410.932-1.933-3.754-4.745.649-.871 4.138-1.638.224 2.928-13.423 1.48-.203 6.434 12.143zm-2.643-5.12-1.794-3.517q-.073-.15-.183-.365l-.215-.467q-.114-.25-.23-.519-.118-.276-.224-.537-.024.278-.064.577-.039.298-.08.578-.043.272-.09.51-.04.227-.072.382l-.757 3.865zM380.213 398.3q-.932.128-1.64.588-.71.452-1.16 1.188-.44.734-.607 1.724-.157.988.006 2.181.168 1.228.552 2.152.391.913.994 1.496t1.416.817 1.84.095q.775-.106 1.452-.35.675-.252 1.327-.545l.193 1.41q-.322.178-.647.329-.327.142-.693.254-.357.111-.78.196-.414.092-.927.162-1.428.195-2.538-.132t-1.915-1.095q-.797-.77-1.294-1.935-.496-1.165-.697-2.636-.198-1.446.012-2.699.219-1.254.832-2.216.622-.963 1.645-1.591t2.434-.821q.94-.129 1.82-.054t1.618.347l-.494 1.451q-.586-.204-1.258-.316t-1.49 0zM395.97 407.845l-1.838.252-4.758-5.541-1.075 1.158.696 5.086-1.62.221-1.742-12.73 1.62-.223.87 6.366.854-1.607 3.266-5.441 1.82-.25-3.77 6.167z"/></g><g style="font-style:normal;font-variant:normal;font-weight:400;font-stretch:normal;line-height:0%;font-family:&quot;Droid Sans&quot;;-inkscape-font-specification:&quot;Droid Sans&quot;;text-align:start;letter-spacing:0;word-spacing:0;text-anchor:start;fill:#000;fill-opacity:1;stroke:none"><path d="M158.578 301.862c0-8.147-1.824-13.132-10.093-14.592v-.486c8.756-1.824 10.093-7.66 10.093-16.051V250.06c0-7.174 2.067-11.43 8.512-13.132v-.244c-13.011-.608-16.294 4.621-16.294 17.632v19.578c0 7.904-1.46 11.31-9.242 12.89v.486c7.053.608 9.242 6.81 9.242 12.89v21.888c0 12.404 4.377 15.808 16.66 15.808v-.243c-7.054-1.945-8.878-5.715-8.878-13.133z" aria-label="{" style="font-style:normal;font-variant:normal;font-weight:400;font-stretch:normal;font-size:121.60096741px;line-height:1.25;font-family:&quot;ITC New Baskerville Std&quot;;-inkscape-font-specification:&quot;ITC New Baskerville Std&quot;" transform="scale(.99296 1.00709)"/></g><g aria-label="ESTABLISHED" style="font-style:normal;font-variant:normal;font-weight:400;font-stretch:normal;line-height:0%;font-family:&quot;Droid Sans&quot;;-inkscape-font-specification:&quot;Droid Sans&quot;;text-align:start;letter-spacing:0;word-spacing:0;text-anchor:start;fill:#000;fill-opacity:1;stroke:none"><path d="M-340.297 130.347h-7.412V116.07h7.412v1.602h-5.596v4.414h5.225v1.582h-5.225v5.078h5.596zM-329.643 126.529q0 .947-.341 1.7-.332.741-.957 1.259t-1.524.791q-.898.264-2.021.264-1.084 0-2.032-.176-.937-.166-1.572-.498v-1.738q.332.156.752.312.43.147.899.264.468.117.966.195.498.068.987.068 1.562 0 2.304-.585.752-.586.752-1.68 0-.528-.146-.918-.137-.39-.498-.713-.352-.332-.947-.635-.596-.312-1.504-.674-.87-.341-1.514-.742-.635-.41-1.055-.918-.41-.508-.615-1.152-.195-.645-.195-1.465 0-.86.312-1.533.313-.674.88-1.133.566-.469 1.347-.713.79-.244 1.738-.244 1.162 0 2.09.225.928.214 1.65.556l-.654 1.524q-.635-.284-1.445-.489-.801-.214-1.66-.214-1.192 0-1.846.556-.654.547-.654 1.485 0 .556.146.966.146.4.488.733.342.322.899.615.566.283 1.386.605.89.352 1.553.723.674.371 1.123.84.45.469.674 1.084.234.615.234 1.455M-322.611 130.347h-1.827v-12.675h-4.082v-1.602h9.98v1.602h-4.071zM-309.232 130.347l-1.563-4.423h-5.322l-1.582 4.423h-1.836l5.244-14.336h1.66l5.254 14.336zm-2.14-6.035-1.444-4.14q-.059-.176-.147-.43l-.166-.547q-.088-.293-.176-.605-.088-.323-.166-.625-.068.302-.156.625-.088.322-.176.625-.088.293-.176.546-.078.245-.136.41l-1.416 4.141zM-305.443 116.07h3.896q1.25 0 2.197.195.957.186 1.592.616.645.42.967 1.113.322.683.322 1.69 0 .605-.195 1.132-.186.527-.547.928-.361.4-.898.674-.528.263-1.202.351v.098q.674.117 1.26.342.596.215 1.035.605.44.381.694.967t.254 1.426q0 .976-.323 1.748-.312.762-.918 1.299-.595.527-1.455.81t-1.943.283h-4.736zm1.816 6.055h2.383q.82 0 1.377-.147.556-.146.898-.43.342-.292.489-.722.156-.44.156-1.016 0-1.172-.752-1.68-.752-.507-2.373-.507h-2.178zm0 1.523v5.156h2.598q.86 0 1.435-.195.586-.195.938-.547.361-.351.517-.84.157-.498.157-1.093 0-.547-.166-1.006-.157-.46-.528-.781-.361-.333-.967-.508-.605-.186-1.503-.186zM-293.021 130.347V116.07h1.816v12.656h5.596v1.621zM-279.145 130.347h-5.175v-.996l1.68-.4v-11.484l-1.68-.4v-.997h5.175v.996l-1.68.4v11.485l1.68.4zM-268.861 126.529q0 .947-.342 1.7-.332.741-.957 1.259t-1.524.791q-.898.264-2.021.264-1.084 0-2.031-.176-.938-.166-1.573-.498v-1.738q.332.156.752.312.43.147.899.264t.967.195q.498.068.986.068 1.562 0 2.305-.585.752-.586.752-1.68 0-.528-.147-.918-.137-.39-.498-.713-.352-.332-.947-.635-.596-.312-1.504-.674-.87-.341-1.514-.742-.635-.41-1.055-.918-.41-.508-.615-1.152-.195-.645-.195-1.465 0-.86.312-1.533.313-.674.88-1.133.566-.469 1.347-.713.791-.244 1.738-.244 1.162 0 2.09.225.928.214 1.65.556l-.654 1.524q-.635-.284-1.445-.489-.8-.214-1.66-.214-1.192 0-1.846.556-.654.547-.654 1.485 0 .556.146.966.147.4.489.733.341.322.898.615.566.283 1.387.605.888.352 1.552.723.674.371 1.123.84.45.469.674 1.084.235.615.235 1.455M-255.854 130.347h-1.816v-6.66h-6.504v6.66h-1.816V116.07h1.816v6.016h6.504v-6.016h1.816zM-244.555 130.347h-7.412V116.07h7.412v1.602h-5.595v4.414h5.224v1.582h-5.224v5.078h5.595zM-230.902 123.072q0 1.807-.47 3.174-.468 1.357-1.357 2.275-.888.908-2.187 1.367-1.29.46-2.93.46h-3.574V116.07h3.975q1.494 0 2.705.45 1.21.448 2.06 1.337.85.879 1.309 2.188.469 1.308.469 3.027m-1.924.059q0-1.426-.322-2.461-.323-1.045-.938-1.72-.615-.673-1.514-.995-.898-.332-2.04-.332h-1.964v11.162h1.583q2.578 0 3.886-1.426t1.309-4.228" style="font-size:20px;line-height:1.25" transform="rotate(-90)"/></g><g style="font-style:normal;font-variant:normal;font-weight:400;font-stretch:normal;line-height:0%;font-family:&quot;Droid Sans&quot;;-inkscape-font-specification:&quot;Droid Sans&quot;;text-align:start;letter-spacing:0;word-spacing:0;text-anchor:start;fill:#000;fill-opacity:1;stroke:none"><path d="M-366.68 418.457c0-6.6-1.477-10.64-8.177-11.823v-.394c7.094-1.478 8.178-6.207 8.178-13.005v-16.75c0-5.813 1.675-9.261 6.897-10.64v-.197c-10.543-.493-13.203 3.743-13.203 14.286v15.862c0 6.405-1.182 9.163-7.488 10.444v.394c5.715.493 7.488 5.518 7.488 10.444v17.735c0 10.05 3.547 12.808 13.498 12.808v-.197c-5.714-1.576-7.192-4.63-7.192-10.64z" aria-label="{" style="font-style:normal;font-variant:normal;font-weight:400;font-stretch:normal;font-size:98.52592468px;line-height:1.25;font-family:&quot;ITC New Baskerville Std&quot;;-inkscape-font-specification:&quot;ITC New Baskerville Std&quot;" transform="scale(-1.22552 .81598)"/></g><g aria-label="FIN-WAIT-1" style="font-style:normal;font-variant:normal;font-weight:400;font-stretch:normal;line-height:0%;font-family:&quot;Droid Sans&quot;;-inkscape-font-specification:&quot;Droid Sans&quot;;text-align:start;letter-spacing:0;word-spacing:0;text-anchor:start;fill:#000;fill-opacity:1;stroke:none"><path d="M477.681 338.974h-1.816v-14.278h7.412v1.602h-5.596v5.039h5.225v1.601h-5.225zM489.742 338.974h-5.176v-.996l1.68-.4v-11.485l-1.68-.4v-.997h5.176v.996l-1.68.4v11.485l1.68.4zM503.199 338.974h-2.1l-7.021-11.817H494q.058.752.097 1.494.04.635.059 1.328.03.694.03 1.25v7.745h-1.68v-14.278h2.08l6.992 11.758h.068q-.029-.742-.068-1.465-.01-.312-.03-.635-.01-.332-.029-.654l-.02-.635v-8.369h1.7zM505.933 334.433v-1.641h4.844v1.64zM519.478 324.696h1.924l2.236 8.36q.147.547.284 1.093.146.547.263 1.065.127.508.215.967.098.459.156.83.04-.371.098-.81t.137-.919q.078-.488.166-.986.097-.508.205-.986l1.953-8.614h1.943l-3.584 14.278h-1.836l-2.48-9.16q-.137-.499-.264-1.026t-.234-.986q-.117-.537-.225-1.045-.107.498-.215 1.035-.097.459-.224 1.006-.117.547-.254 1.074l-2.363 9.102h-1.836l-3.77-14.278h1.924l2.178 8.682q.117.45.215.937.097.479.175.957.088.479.157.928.068.44.117.81.049-.36.117-.84.078-.478.176-1.005t.205-1.064q.117-.547.244-1.026zM539.185 338.974l-1.562-4.424H532.3l-1.582 4.424h-1.835l5.244-14.336h1.66l5.254 14.336zm-2.138-6.036-1.446-4.14q-.058-.176-.146-.43l-.166-.547q-.088-.293-.176-.605-.088-.322-.166-.625-.068.303-.156.625t-.176.625q-.088.293-.176.547-.078.244-.137.41l-1.416 4.14zM547.008 338.974h-5.176v-.996l1.68-.4v-11.485l-1.68-.4v-.997h5.176v.996l-1.68.4v11.485l1.68.4zM553.931 338.974h-1.826v-12.676h-4.082v-1.602h9.98v1.602h-4.072zM558.043 334.433v-1.641h4.843v1.64zM570.63 338.974h-1.718v-9.815000000000001l.02-.947q.019-.479.029-.908.02-.44.029-.772-.166.176-.293.303t-.264.244l-.273.254-.352.303-1.445 1.181-.938-1.2 3.74-2.92h1.466z" style="font-size:20px;line-height:1.25"/></g><g style="font-style:normal;font-variant:normal;font-weight:400;font-stretch:normal;line-height:0%;font-family:&quot;Droid Sans&quot;;-inkscape-font-specification:&quot;Droid Sans&quot;;text-align:start;letter-spacing:0;word-spacing:0;text-anchor:start;fill:#000;fill-opacity:1;stroke:none"><path d="M-385.761 486.992c0-6.945-1.555-11.195-8.603-12.439v-.414c7.463-1.555 8.603-6.53 8.603-13.682v-17.621c0-6.116 1.762-9.744 7.256-11.195v-.207c-11.091-.519-13.89 3.939-13.89 15.03v16.688c0 6.737-1.244 9.64-7.878 10.987v.414c6.012.519 7.878 5.805 7.878 10.988v18.657c0 10.573 3.732 13.475 14.2 13.475v-.207c-6.011-1.659-7.566-4.872-7.566-11.195z" aria-label="{" style="font-style:normal;font-variant:normal;font-weight:400;font-stretch:normal;font-size:103.6531601px;line-height:1.25;font-family:&quot;ITC New Baskerville Std&quot;;-inkscape-font-specification:&quot;ITC New Baskerville Std&quot;" transform="scale(-1.1649 .85844)"/></g><g aria-label="TIME-WAIT" style="font-style:normal;font-variant:normal;font-weight:400;font-stretch:normal;line-height:0%;font-family:&quot;Droid Sans&quot;;-inkscape-font-specification:&quot;Droid Sans&quot;;text-align:start;letter-spacing:0;word-spacing:0;text-anchor:start;fill:#000;fill-opacity:1;stroke:none"><path d="M480.025 414.545H478.2v-12.676h-4.082v-1.601h9.98v1.601h-4.072zM490.289 414.545h-5.176v-.996l1.68-.4v-11.485l-1.68-.4v-.996h5.176v.996l-1.68.4v11.485l1.68.4zM498.95 414.545l-4.325-12.5h-.078q.058.723.097 1.436.04.615.059 1.298.03.674.03 1.23v8.536h-1.68v-14.277h2.695l4.023 11.64h.059l4.043-11.64h2.695v14.277h-1.816v-8.662q0-.508.02-1.162.019-.654.048-1.25.04-.694.068-1.406h-.078l-4.365 12.48zM517.886 414.545h-7.412v-14.277h7.412v1.601h-5.595v4.414h5.224v1.582h-5.224v5.078h5.595zM519.879 410.004v-1.64h4.843v1.64zM533.424 400.268h1.923l2.237 8.359q.146.547.283 1.094.146.547.264 1.064.127.508.214.967.098.459.157.83.039-.371.097-.81t.137-.918q.078-.489.166-.987.098-.508.205-.986l1.953-8.613h1.944l-3.584 14.277h-1.836l-2.48-9.16q-.138-.498-.265-1.026l-.234-.986q-.117-.537-.225-1.045-.107.498-.214 1.035-.098.46-.225 1.006-.117.547-.254 1.074l-2.363 9.102h-1.836l-3.77-14.277h1.924l2.178 8.681q.117.45.215.938.097.478.176.957.087.478.156.928.068.439.117.81.049-.361.117-.84.078-.478.176-1.006.098-.527.205-1.064.117-.547.244-1.025zM553.13 414.545l-1.562-4.424h-5.322l-1.582 4.424h-1.836l5.244-14.336h1.66l5.254 14.336zm-2.138-6.035-1.445-4.14q-.059-.177-.147-.43l-.166-.547q-.088-.293-.176-.606-.088-.322-.166-.625-.068.303-.156.625t-.176.625q-.088.293-.176.547-.078.244-.136.41l-1.416 4.14zM560.953 414.545h-5.176v-.996l1.68-.4v-11.485l-1.68-.4v-.996h5.176v.996l-1.68.4v11.485l1.68.4zM567.877 414.545h-1.827v-12.676h-4.082v-1.601h9.98v1.601h-4.071z" style="font-size:20px;line-height:1.25"/></g><g style="font-style:normal;font-variant:normal;font-weight:400;font-stretch:normal;line-height:0%;font-family:&quot;Droid Sans&quot;;-inkscape-font-specification:&quot;Droid Sans&quot;;text-align:start;letter-spacing:0;word-spacing:0;text-anchor:start;fill:#000;fill-opacity:1;stroke:none"><path d="M242.526 323.912c0-12.46-2.79-20.086-15.436-22.317v-.744c13.39-2.79 15.436-11.717 15.436-24.549v-31.615c0-10.973 3.162-17.482 13.018-20.085v-.372c-19.9-.93-24.92 7.067-24.92 26.966v29.942c0 12.088-2.232 17.295-14.134 19.713v.744c10.786.93 14.134 10.414 14.134 19.713v33.475c0 18.97 6.695 24.177 25.478 24.177v-.372c-10.786-2.976-13.576-8.74-13.576-20.085z" aria-label="{" style="font-style:normal;font-variant:normal;font-weight:400;font-stretch:normal;font-size:185.97375488px;line-height:1.25;font-family:&quot;ITC New Baskerville Std&quot;;-inkscape-font-specification:&quot;ITC New Baskerville Std&quot;" transform="scale(.64926 1.54021)"/></g><g aria-label="LAST-ACK" style="font-style:normal;font-variant:normal;font-weight:400;font-stretch:normal;line-height:0%;font-family:&quot;Droid Sans&quot;;-inkscape-font-specification:&quot;Droid Sans&quot;;text-align:start;letter-spacing:0;word-spacing:0;text-anchor:start;fill:#000;fill-opacity:1;stroke:none"><path d="M48.638 471.664v-14.278h1.817v12.657h5.595v1.62zM66.842 471.664l-1.563-4.424h-5.322l-1.582 4.424h-1.836l5.244-14.336h1.66l5.254 14.336zm-2.14-6.036-1.444-4.14-.147-.43-.166-.547q-.088-.293-.176-.605-.088-.322-.166-.625-.068.303-.156.625t-.176.625q-.088.293-.176.547-.078.244-.136.41l-1.416 4.14zM78.15 467.845q0 .948-.342 1.7-.332.742-.957 1.26-.625.517-1.523.79-.899.264-2.022.264-1.084 0-2.03-.176-.938-.166-1.573-.498v-1.738q.332.156.752.312.43.147.898.264t.967.195q.498.069.986.069 1.563 0 2.305-.586.752-.586.752-1.68 0-.527-.146-.918-.137-.39-.499-.713-.351-.332-.947-.635-.596-.312-1.504-.673-.869-.342-1.513-.743-.635-.41-1.055-.918-.41-.507-.615-1.152-.196-.644-.196-1.465 0-.86.313-1.533.312-.674.879-1.133.566-.468 1.347-.713.791-.244 1.739-.244 1.162 0 2.09.225.927.215 1.65.556l-.654 1.524q-.635-.283-1.446-.488-.8-.215-1.66-.215-1.191 0-1.846.556-.654.547-.654 1.485 0 .556.147.967.146.4.488.732.342.322.898.615.567.283 1.387.606.889.351 1.553.722.674.371 1.123.84.45.469.674 1.084.234.615.234 1.455M85.181 471.664h-1.826v-12.676h-4.082v-1.602h9.98v1.602h-4.072zM89.293 467.123v-1.641h4.843v1.64zM105.24 471.664l-1.563-4.424h-5.322l-1.582 4.424h-1.836l5.244-14.336h1.66l5.254 14.336zm-2.139-6.036-1.445-4.14q-.059-.176-.147-.43l-.166-.547q-.087-.293-.175-.605-.088-.322-.166-.625-.069.303-.157.625-.087.322-.175.625-.088.293-.176.547-.078.244-.137.41l-1.416 4.14zM114.634 458.783q-1.044 0-1.894.4-.85.39-1.455 1.133-.596.742-.928 1.807-.322 1.064-.322 2.402 0 1.377.283 2.451.293 1.065.87 1.797.575.732 1.435 1.113t2.011.381q.87 0 1.65-.166.782-.176 1.544-.4v1.582q-.381.146-.762.263-.38.108-.8.176-.41.069-.89.098-.468.039-1.044.039-1.602 0-2.774-.527-1.172-.528-1.943-1.494-.762-.967-1.133-2.325-.371-1.357-.371-3.007 0-1.622.42-2.97.43-1.347 1.25-2.314.83-.966 2.05-1.504 1.221-.537 2.803-.537 1.055 0 2.012.215t1.729.625l-.762 1.524q-.615-.313-1.338-.538-.723-.224-1.64-.224M130.543 471.664h-2.06l-4.405-6.817-1.358 1.114v5.703h-1.816v-14.278h1.816v7.139l1.182-1.64 4.414-5.499h2.041l-5.078 6.221z" style="font-size:20px;line-height:1.25"/></g><path id="b" d="M417.32 478.22 188.57 509.511" style="fill:none;stroke:#000;stroke-width:1px;stroke-linecap:butt;stroke-linejoin:miter;stroke-opacity:1;marker-start:none;marker-end:url(#a)"/><path d="m188.571 514.22 228.748 31.292" style="fill:none;stroke:#000;stroke-width:1px;stroke-linecap:butt;stroke-linejoin:miter;stroke-opacity:1;marker-start:none;marker-end:url(#a)"/><g id="c" aria-label="SYN" style="font-style:normal;font-variant:normal;font-weight:400;font-stretch:normal;font-size:18px;line-height:0%;font-family:&quot;Droid Sans&quot;;-inkscape-font-specification:&quot;Droid Sans&quot;;text-align:start;letter-spacing:0;word-spacing:0;text-anchor:start;fill:#000;fill-opacity:1;stroke:none"><path d="M374.004 477.058q.115.845-.098 1.557-.205.702-.7 1.24-.493.538-1.261.891-.77.345-1.77.482-.967.132-1.833.09-.857-.033-1.463-.251l-.212-1.55q.315.098.709.187.4.078.833.125t.886.056q.452 0 .888-.06 1.393-.19 1.983-.803.6-.614.466-1.59-.064-.47-.243-.8-.17-.332-.53-.575-.355-.253-.923-.45-.57-.206-1.423-.418-.817-.199-1.44-.477-.616-.288-1.053-.69-.428-.403-.689-.952-.253-.551-.353-1.283-.105-.766.092-1.405.196-.639.645-1.117.448-.487 1.115-.8.676-.315 1.52-.43 1.036-.142 1.891-.055.854.079 1.54.295l-.398 1.439q-.6-.176-1.348-.26-.74-.093-1.507.011-1.062.146-1.578.722-.516.567-.402 1.403.068.497.248.844.18.34.525.594.344.246.876.439.54.183 1.31.37.836.206 1.473.456.647.248 1.104.612.458.363.733.884.284.52.387 1.269zM379.13 473.412l2.08-6.84 1.741-.239-2.82 8.308.678 4.955-1.628.222-.666-4.867-4.96-7.332 1.768-.242zM395.97 477.522l-1.873.256-7.702-9.68-.07.01q.144.663.27 1.32.112.561.214 1.177.11.615.179 1.111l.944 6.906-1.498.205-1.741-12.731 1.855-.254 7.669 9.631.06-.008q-.116-.658-.239-1.298-.047-.277-.104-.562-.049-.295-.105-.58l-.095-.564-.068-.496-.953-6.966 1.515-.208z"/></g><g aria-label="FIN,ACK" style="font-style:normal;font-variant:normal;font-weight:400;font-stretch:normal;font-size:18px;line-height:0%;font-family:&quot;Droid Sans&quot;;-inkscape-font-specification:&quot;Droid Sans&quot;;text-align:start;letter-spacing:0;word-spacing:0;text-anchor:start;fill:#000;fill-opacity:1;stroke:none"><path d="m333.542 530.535-1.62-.221 1.742-12.732 6.61.905-.196 1.428-4.99-.683-.614 4.493 4.659.638-.196 1.428-4.659-.637zM344.297 532.006l-4.616-.631.122-.888 1.547-.152 1.4-10.241-1.449-.562.122-.888 4.615.631-.121.888-1.547.153-1.4 10.24 1.448.562zM356.296 533.648l-1.872-.256-4.82-11.393-.07-.01q-.039.677-.095 1.344-.042.57-.11 1.191-.058.622-.126 1.118l-.944 6.906-1.498-.205 1.742-12.731 1.854.254 4.8 11.337.062.008q.064-.665.118-1.315.03-.28.051-.57.032-.296.054-.586l.06-.569.068-.496.953-6.966 1.515.207zM361.456 532.242l.103.219q-.186.453-.433.96-.238.51-.52 1.02-.275.513-.574 1.013-.291.51-.576.968l-1.202-.164q.204-.514.404-1.072.21-.557.401-1.116.2-.55.37-1.076.17-.535.303-.987zM371.666 535.75l-.854-4.135-4.746-.65-1.95 3.753-1.637-.224 6.425-12.144 1.48.203 2.936 13.424zm-1.171-5.642-.784-3.868q-.03-.164-.078-.401-.039-.236-.081-.508t-.083-.562q-.04-.298-.072-.577-.098.261-.216.538t-.233.536q-.114.25-.223.466-.1.208-.172.35l-1.768 3.519zM381.614 525.41q-.932-.127-1.738.127-.805.244-1.436.832-.622.59-1.047 1.498-.418.91-.58 2.103-.169 1.228-.047 2.22.131.985.555 1.708.425.724 1.145 1.168.72.445 1.747.585.775.106 1.492.053.718-.061 1.425-.168l-.193 1.41q-.358.085-.712.143-.352.049-.735.059-.374.01-.804-.022-.423-.022-.937-.092-1.428-.196-2.409-.809t-1.55-1.57q-.562-.954-.727-2.21t.036-2.727q.198-1.446.737-2.596.547-1.15 1.397-1.912.858-.76 2.012-1.09t2.564-.137q.94.128 1.768.437.827.308 1.465.768l-.865 1.265q-.51-.353-1.127-.642-.617-.288-1.436-.4zM394.228 538.837l-1.837-.251-3.096-6.616-1.346.827-.696 5.086-1.62-.222 1.742-12.73 1.62.22-.871 6.366 1.254-1.319 4.606-4.364 1.82.25-5.287 4.927z"/></g><g aria-label="(shortened)" style="font-style:normal;font-variant:normal;font-weight:400;font-stretch:normal;line-height:0%;font-family:&quot;Droid Sans&quot;;-inkscape-font-specification:&quot;Droid Sans&quot;;text-align:start;letter-spacing:0;word-spacing:0;text-anchor:start;fill:#000;fill-opacity:1;stroke:none"><path d="M487.154 424.71q0-.854.124-1.682.123-.834.375-1.613.253-.786.636-1.504.39-.724.923-1.36h1.176q-.957 1.32-1.456 2.898-.492 1.58-.492 3.247 0 .814.123 1.62.13.807.369 1.58.246.772.608 1.497.363.724.834 1.367h-1.162q-.533-.615-.923-1.32-.383-.704-.636-1.47-.252-.772-.375-1.592-.124-.82-.124-1.668M496.486 426.487q0 .547-.199.957-.198.41-.574.69-.37.274-.895.411-.527.137-1.183.137-.745 0-1.278-.123-.534-.117-.937-.349v-1.135q.212.11.472.22.26.102.547.184t.588.136q.307.048.608.048.444 0 .752-.075.314-.075.506-.212.198-.144.287-.342.089-.205.089-.45 0-.213-.069-.384-.068-.17-.253-.335-.177-.17-.492-.341-.314-.171-.806-.383t-.89-.417q-.389-.205-.662-.458-.274-.253-.424-.581-.144-.335-.144-.793 0-.479.185-.848.191-.376.533-.629t.82-.383q.48-.13 1.067-.13.663 0 1.21.144.554.144 1.046.376l-.43 1.005q-.445-.198-.917-.342-.465-.15-.95-.15-.697 0-1.032.232-.335.226-.335.65 0 .239.075.416.082.178.273.335.192.158.513.322.321.157.8.355.492.205.875.41.39.205.663.465.273.253.417.581t.144.786M503 428.545v-4.833q0-.889-.362-1.333-.356-.444-1.121-.444-.554 0-.93.177-.376.178-.608.527-.226.348-.328.854-.096.506-.096 1.162v3.89h-1.244v-10.637h1.244v3.159l-.055.984h.069q.17-.294.403-.506.24-.219.52-.362.28-.144.594-.212.315-.069.643-.069 1.25 0 1.88.657.635.65.635 2.085v4.901zM512.687 424.778q0 .937-.233 1.668-.225.725-.656 1.224-.424.492-1.032.752t-1.367.26q-.704 0-1.3-.26-.594-.26-1.031-.752-.431-.499-.677-1.224-.24-.731-.24-1.668 0-.93.226-1.647.233-.725.656-1.217.424-.499 1.033-.752.615-.26 1.374-.26.704 0 1.298.26.595.253 1.026.752.437.492.677 1.217.246.718.246 1.647m-5.25 0q0 1.43.465 2.154.471.718 1.524.718t1.51-.718q.466-.725.466-2.154t-.472-2.132q-.465-.711-1.518-.711t-1.517.71q-.458.705-.458 2.133M517.91 420.902q.198 0 .444.021.246.014.424.048l-.165 1.148q-.19-.034-.396-.054-.198-.028-.376-.028-.43 0-.786.178-.356.17-.615.5-.253.32-.397.778-.137.452-.137 1.005v4.047h-1.244v-7.506h1.012l.15 1.374h.055q.171-.294.362-.567.199-.274.438-.479.246-.212.547-.335.3-.13.683-.13M522.51 427.663q.123 0 .273-.013.158-.014.301-.035.144-.02.26-.048.123-.027.185-.047v.943q-.09.041-.226.082-.137.041-.3.068-.165.035-.343.048-.177.02-.348.02-.424 0-.786-.109-.363-.11-.63-.376-.26-.266-.41-.717-.15-.458-.15-1.149v-4.354h-1.06v-.554l1.06-.533.533-1.572h.718v1.722h1.887v.937h-1.887v4.354q0 .663.212.998.219.335.71.335M527.965 428.682q-.752 0-1.374-.253t-1.073-.738q-.445-.486-.69-1.204-.247-.717-.247-1.64 0-.93.226-1.661.225-.732.636-1.238.41-.512.977-.779.574-.267 1.265-.267.677 0 1.217.247.54.239.916.683.376.438.574 1.06.205.615.205 1.367v.772h-4.73q.034 1.32.553 1.942.526.622 1.559.622.348 0 .642-.034.301-.035.574-.096.28-.068.54-.164.26-.103.527-.226v1.108q-.274.13-.54.225-.26.096-.54.158-.274.061-.574.088-.294.028-.643.028m-.308-6.747q-.779 0-1.237.533-.451.533-.526 1.552h3.363q0-.465-.096-.848-.089-.39-.287-.663-.191-.274-.492-.424-.3-.15-.725-.15M537.18 428.545v-4.833q0-.889-.362-1.333-.356-.444-1.122-.444-.553 0-.93.177-.375.178-.608.527-.225.348-.328.854-.095.506-.095 1.162v3.89h-1.245v-7.506h1.012l.178 1.012h.068q.171-.294.404-.506.239-.219.52-.362.28-.144.594-.212.314-.069.642-.069 1.251 0 1.88.657.636.65.636 2.085v4.901zM543.715 428.682q-.752 0-1.374-.253t-1.073-.738q-.445-.486-.69-1.204-.247-.717-.247-1.64 0-.93.226-1.661.225-.732.636-1.238.41-.512.977-.779.574-.267 1.265-.267.677 0 1.217.247.54.239.916.683.376.438.574 1.06.205.615.205 1.367v.772h-4.73q.034 1.32.553 1.942.526.622 1.559.622.348 0 .642-.034.301-.035.574-.096.28-.068.54-.164.26-.103.527-.226v1.108q-.274.13-.54.225-.26.096-.54.158-.274.061-.574.088-.294.028-.643.028m-.308-6.747q-.779 0-1.237.533-.451.533-.526 1.552h3.363q0-.465-.096-.848-.089-.39-.287-.663-.191-.274-.492-.424-.3-.15-.725-.15M552.875 427.54h-.055q-.15.233-.355.444-.198.206-.465.363-.26.157-.588.246t-.738.089q-.636 0-1.162-.246t-.902-.732q-.376-.492-.582-1.217-.205-.724-.205-1.681 0-.964.205-1.689.206-.731.582-1.223t.902-.739q.526-.252 1.162-.252.403 0 .731.088.329.09.588.24.267.15.472.348.205.199.355.417h.082l-.04-.444-.028-.362q-.014-.192-.014-.301v-2.98h1.245v10.636h-1.005zm-1.962.11q.52 0 .875-.158.363-.157.581-.478.226-.322.328-.8.11-.485.124-1.128v-.28q0-.69-.096-1.224-.09-.54-.315-.902-.218-.37-.588-.554-.369-.191-.922-.191-.923 0-1.36.745-.431.745-.431 2.14 0 1.428.43 2.132.438.698 1.374.698M558.911 424.71q0 .848-.123 1.668t-.383 1.593q-.252.765-.642 1.47-.383.704-.916 1.319h-1.162q.471-.643.834-1.367.362-.725.608-1.497t.37-1.58q.122-.806.122-1.62 0-1.668-.492-3.247t-1.456-2.898h1.176q.533.636.916 1.36.39.718.642 1.504.26.78.383 1.613.123.828.123 1.682" style="font-size:14px;line-height:1.25"/></g><path d="M327.59 452.648h254.106" style="fill:none;stroke:#000;stroke-width:1;stroke-linecap:butt;stroke-linejoin:miter;stroke-miterlimit:4;stroke-dasharray:3.00000002,3.00000002;stroke-dashoffset:0;stroke-opacity:1"/><path d="m-83.571 278.79-53.215 53.215M-136.786 278.79l53.215 53.215" style="fill:none;stroke:#c90000;stroke-width:10;stroke-linecap:round;stroke-linejoin:miter;stroke-miterlimit:4;stroke-dasharray:none;stroke-opacity:1" transform="rotate(-4.634 3629.829 -3629.266)scale(.40113)"/><g style="font-style:normal;font-variant:normal;font-weight:400;font-stretch:normal;line-height:0%;font-family:&quot;Droid Sans&quot;;-inkscape-font-specification:&quot;Droid Sans&quot;;text-align:start;letter-spacing:0;word-spacing:0;text-anchor:start;fill:#000;fill-opacity:1;stroke:none"><path d="M-560.292 462.637c0-10.087-2.259-16.26-12.496-18.066v-.602c10.84-2.258 12.496-9.485 12.496-19.873v-25.593c0-8.882 2.559-14.152 10.538-16.26v-.3c-16.109-.753-20.174 5.72-20.174 21.83v24.238c0 9.785-1.806 14-11.441 15.958v.602c8.732.753 11.441 8.43 11.441 15.958v27.1c0 15.355 5.42 19.57 20.626 19.57v-.3c-8.732-2.41-10.99-7.076-10.99-16.26z" aria-label="{" style="font-style:normal;font-variant:normal;font-weight:400;font-stretch:normal;font-size:150.54934692px;line-height:1.25;font-family:&quot;ITC New Baskerville Std&quot;;-inkscape-font-specification:&quot;ITC New Baskerville Std&quot;" transform="scale(-.80203 1.24683)"/></g><g aria-label="SYN-SENT" style="font-style:normal;font-variant:normal;font-weight:400;font-stretch:normal;line-height:0%;font-family:&quot;Droid Sans&quot;;-inkscape-font-specification:&quot;Droid Sans&quot;;text-align:start;letter-spacing:0;word-spacing:0;text-anchor:start;fill:#000;fill-opacity:1;stroke:none"><path d="M483.384 557.63q0 .948-.341 1.7-.332.742-.957 1.26-.625.517-1.524.79-.898.264-2.021.264-1.084 0-2.032-.175-.937-.166-1.572-.498v-1.739q.332.156.752.313.43.146.899.263.468.118.966.196.498.068.987.068 1.562 0 2.304-.586.752-.586.752-1.68 0-.527-.146-.917-.137-.391-.498-.713-.352-.332-.947-.635-.596-.313-1.504-.674-.87-.342-1.514-.742-.635-.41-1.055-.918-.41-.508-.615-1.152-.195-.645-.195-1.465 0-.86.312-1.533.313-.674.88-1.133.566-.47 1.347-.713.79-.244 1.738-.244 1.162 0 2.09.224.928.215 1.65.557l-.654 1.523q-.635-.283-1.445-.488-.801-.215-1.66-.215-1.192 0-1.846.557-.654.547-.654 1.484 0 .557.146.967.147.4.488.732.342.323.899.616.566.283 1.386.605.89.352 1.553.723.674.37 1.123.84.45.468.674 1.084.234.615.234 1.455M489.576 554.388l3.32-7.216h1.953l-4.355 8.72v5.557h-1.826v-5.459l-4.356-8.818h1.983zM507.496 561.449h-2.1l-7.021-11.816h-.078q.058.752.097 1.494.04.635.059 1.328.03.693.03 1.25v7.744h-1.68v-14.277h2.08l6.992 11.757h.068q-.03-.742-.068-1.464-.01-.313-.03-.635-.01-.332-.029-.654l-.02-.635v-8.369h1.7zM510.23 556.908v-1.64h4.844v1.64zM525.338 557.63q0 .948-.342 1.7-.332.742-.957 1.26-.625.517-1.524.79-.898.264-2.021.264-1.084 0-2.031-.175-.938-.166-1.573-.498v-1.739q.332.156.752.313.43.146.899.263.468.118.967.196.498.068.986.068 1.562 0 2.305-.586.751-.586.751-1.68 0-.527-.146-.917-.137-.391-.498-.713-.352-.332-.947-.635-.596-.313-1.504-.674-.87-.342-1.514-.742-.635-.41-1.055-.918-.41-.508-.615-1.152-.195-.645-.195-1.465 0-.86.312-1.533.313-.674.88-1.133.566-.47 1.347-.713.79-.244 1.738-.244 1.162 0 2.09.224.928.215 1.65.557l-.654 1.523q-.635-.283-1.445-.488-.801-.215-1.66-.215-1.192 0-1.846.557-.654.547-.654 1.484 0 .557.146.967.147.4.488.732.342.323.899.616.566.283 1.387.605.888.352 1.552.723.674.37 1.123.84.45.468.674 1.084.235.615.235 1.455M535.62 561.449h-7.411v-14.277h7.412v1.601h-5.596v4.414h5.225v1.582h-5.225v5.078h5.596zM549.449 561.449h-2.1l-7.021-11.816h-.078q.058.752.097 1.494.04.635.059 1.328.03.693.03 1.25v7.744h-1.68v-14.277h2.08l6.992 11.757h.068q-.029-.742-.068-1.464-.01-.313-.03-.635-.01-.332-.029-.654l-.02-.635v-8.369h1.7zM557.486 561.449h-1.826v-12.676h-4.082v-1.601h9.98v1.601h-4.072z" style="font-size:20px;line-height:1.25"/></g><path d="M417.32 550.22 188.57 581.511" style="fill:none;stroke:#000;stroke-width:1px;stroke-linecap:butt;stroke-linejoin:miter;stroke-opacity:1;marker-start:none;marker-end:url(#a)"/><g aria-label="RST" style="font-style:normal;font-variant:normal;font-weight:400;font-stretch:normal;font-size:18px;line-height:0%;font-family:&quot;Droid Sans&quot;;-inkscape-font-specification:&quot;Droid Sans&quot;;text-align:start;letter-spacing:0;word-spacing:0;text-anchor:start;fill:#000;fill-opacity:1;stroke:none"><path d="m213.264 569.185.72 5.26-1.62.22-1.742-12.73 3.1-.424q2.316-.317 3.545.428 1.228.746 1.477 2.566.104.758-.036 1.353-.132.595-.433 1.053-.293.448-.71.78-.415.332-.87.572l4.246 5.23-1.907.26-3.776-4.841zm-.189-1.376 1.428-.196q.784-.107 1.313-.33.527-.232.835-.575.315-.354.41-.82.104-.475.022-1.076-.086-.627-.328-1.037-.234-.412-.638-.64-.395-.23-.969-.276-.566-.055-1.324.048l-1.393.19zM229.122 568.905q.116.844-.098 1.557-.205.702-.7 1.24-.493.537-1.261.89-.77.346-1.77.483-.967.132-1.833.09-.856-.033-1.463-.252l-.212-1.55q.315.099.709.187.4.078.833.126.432.047.886.056.452 0 .888-.06 1.393-.19 1.983-.803.6-.614.466-1.59-.064-.47-.243-.8-.17-.332-.53-.575-.355-.253-.923-.45-.57-.207-1.423-.418-.817-.199-1.44-.477-.616-.289-1.053-.69-.428-.403-.689-.953-.253-.55-.353-1.282-.105-.766.092-1.405.196-.64.645-1.118.448-.487 1.115-.8.676-.314 1.52-.43 1.037-.141 1.891-.054.854.078 1.54.295l-.398 1.438q-.6-.175-1.348-.259-.74-.094-1.507.011-1.062.145-1.578.721-.516.568-.402 1.404.068.496.248.844.18.34.525.594.344.245.876.439.54.183 1.31.37.836.205 1.474.455.646.25 1.103.612.458.363.733.885.285.52.387 1.269zM235.857 571.452l-1.628.223-1.546-11.303-3.64.498-.195-1.428 8.9-1.218.194 1.428-3.63.497z"/></g><use xlink:href="#b" width="543.558" height="365.286" transform="translate(0 112)"/><use xlink:href="#c" width="543.558" height="365.286" transform="translate(0 112)"/><path d="m188.571 628.22 228.748 31.292" style="fill:none;stroke:#000;stroke-width:1px;stroke-linecap:butt;stroke-linejoin:miter;stroke-opacity:1;marker-start:none;marker-end:url(#a)"/><g aria-label="SYN,ACK" style="font-style:normal;font-variant:normal;font-weight:400;font-stretch:normal;font-size:18px;line-height:0%;font-family:&quot;Droid Sans&quot;;-inkscape-font-specification:&quot;Droid Sans&quot;;text-align:start;letter-spacing:0;word-spacing:0;text-anchor:start;fill:#000;fill-opacity:1;stroke:none"><path d="M339.094 641.826q-.116.845-.513 1.473-.386.622-1.007 1.007t-1.455.52q-.833.125-1.834-.012-.967-.132-1.79-.404-.816-.263-1.341-.636l.212-1.55q.277.18.632.37.365.183.77.345.403.161.837.292.436.121.872.181 1.393.19 2.126-.241.742-.431.876-1.406.064-.47-.02-.837-.073-.365-.356-.696-.273-.34-.767-.682-.494-.351-1.26-.784-.733-.41-1.259-.846-.515-.444-.828-.948-.304-.503-.408-1.102-.096-.599.005-1.33.105-.767.466-1.33.36-.562.922-.902.562-.35 1.288-.472.735-.12 1.58-.006 1.036.142 1.836.456.801.304 1.404.697l-.77 1.279q-.53-.33-1.229-.612-.687-.289-1.454-.394-1.062-.145-1.713.271-.65.408-.765 1.244-.068.497.013.88.082.375.346.713.265.329.726.658.47.322 1.163.709.75.422 1.296.834.556.413.899.886t.469 1.049q.133.577.031 1.326zM345.01 639.69l3.84-6.03 1.742.238-4.947 7.245-.678 4.955-1.628-.223.666-4.867-2.808-8.395 1.767.242zM360.128 648.172l-1.873-.256-4.82-11.393-.069-.01q-.04.677-.095 1.344-.043.57-.11 1.191-.058.622-.126 1.119l-.945 6.905-1.498-.205 1.742-12.73 1.855.253 4.8 11.337.061.008q.065-.665.118-1.314.03-.28.052-.57.031-.297.053-.587l.06-.568.068-.497.953-6.966 1.515.207zM365.288 646.767l.103.218q-.186.453-.433.96-.238.51-.521 1.02-.274.513-.573 1.013-.292.51-.576.968l-1.202-.164q.203-.514.404-1.072.209-.556.4-1.116.2-.549.37-1.076.17-.535.303-.987zM375.497 650.275l-.853-4.136-4.746-.649-1.95 3.752-1.638-.224 6.425-12.144 1.48.203 2.937 13.424zm-1.17-5.643-.784-3.868-.078-.401q-.04-.236-.082-.508t-.083-.562q-.039-.298-.071-.577-.098.261-.216.538t-.233.536q-.114.25-.223.466-.1.208-.172.35l-1.768 3.519zM385.446 639.935q-.932-.128-1.739.126-.805.244-1.435.832-.622.59-1.048 1.498-.417.91-.58 2.103-.168 1.228-.047 2.22.132.985.556 1.708.424.724 1.144 1.168.72.445 1.748.585.775.106 1.492.054.718-.062 1.424-.17l-.193 1.411q-.357.085-.711.143-.353.049-.736.059-.374.01-.804-.022-.423-.022-.937-.092-1.428-.195-2.408-.809-.98-.613-1.55-1.569-.562-.955-.727-2.21-.166-1.256.036-2.728.197-1.446.736-2.596.548-1.15 1.397-1.911.858-.761 2.012-1.091t2.565-.137q.94.128 1.768.437.827.308 1.465.768l-.865 1.265q-.51-.353-1.128-.642-.617-.288-1.435-.4zM398.06 653.361l-1.838-.251-3.096-6.616-1.346.827-.696 5.086-1.62-.222 1.742-12.73 1.62.22-.87 6.366 1.253-1.318 4.607-4.365 1.82.25-5.287 4.927z"/></g><path d="M75.447 596.934h185.535" style="fill:none;stroke:#000;stroke-width:1;stroke-linecap:butt;stroke-linejoin:miter;stroke-miterlimit:4;stroke-dasharray:3.00000002,3.00000002;stroke-dashoffset:0;stroke-opacity:1"/><g style="font-style:normal;font-variant:normal;font-weight:400;font-stretch:normal;line-height:0%;font-family:&quot;Droid Sans&quot;;-inkscape-font-specification:&quot;Droid Sans&quot;;text-align:start;letter-spacing:0;word-spacing:0;text-anchor:start;fill:#000;fill-opacity:1;stroke:none"><path d="M146.44 720.79c0-7.523-1.684-12.128-9.32-13.475v-.45c8.086-1.684 9.32-7.074 9.32-14.822v-19.09c0-6.625 1.91-10.556 7.861-12.128v-.224c-12.015-.562-15.047 4.267-15.047 16.282v18.08c0 7.299-1.347 10.443-8.534 11.903v.449c6.513.561 8.534 6.288 8.534 11.903v20.213c0 11.454 4.043 14.598 15.384 14.598v-.224c-6.513-1.797-8.197-5.278-8.197-12.128z" aria-label="{" style="font-style:normal;font-variant:normal;font-weight:400;font-stretch:normal;font-size:112.2937851px;line-height:1.25;font-family:&quot;ITC New Baskerville Std&quot;;-inkscape-font-specification:&quot;ITC New Baskerville Std&quot;" transform="scale(1.07526 .93)"/></g><g aria-label="ESTABLISHED" style="font-style:normal;font-variant:normal;font-weight:400;font-stretch:normal;line-height:0%;font-family:&quot;Droid Sans&quot;;-inkscape-font-specification:&quot;Droid Sans&quot;;text-align:start;letter-spacing:0;word-spacing:0;text-anchor:start;fill:#000;fill-opacity:1;stroke:none"><path d="M-708.797 130.347h-7.412V116.07h7.412v1.602h-5.596v4.414h5.225v1.582h-5.225v5.078h5.596zM-698.143 126.529q0 .947-.341 1.7-.332.741-.957 1.259t-1.524.791q-.898.264-2.021.264-1.084 0-2.032-.176-.937-.166-1.572-.498v-1.738q.332.156.752.312.43.147.898.264.47.117.967.195.498.068.987.068 1.562 0 2.304-.585.752-.586.752-1.68 0-.528-.146-.918-.137-.39-.498-.713-.352-.332-.948-.635-.595-.312-1.503-.674-.87-.341-1.514-.742-.635-.41-1.055-.918-.41-.508-.615-1.152-.195-.645-.195-1.465 0-.86.312-1.533.313-.674.879-1.133.566-.469 1.348-.713.79-.244 1.738-.244 1.162 0 2.09.225.928.214 1.65.556l-.654 1.524q-.635-.284-1.445-.489-.801-.214-1.66-.214-1.192 0-1.846.556-.655.547-.655 1.485 0 .556.147.966.146.4.488.733.342.322.899.615.566.283 1.386.605.889.352 1.553.723.674.371 1.123.84.45.469.674 1.084.234.615.234 1.455M-691.111 130.347h-1.827v-12.675h-4.082v-1.602h9.98v1.602h-4.071zM-677.732 130.347l-1.563-4.423h-5.322l-1.582 4.423h-1.836l5.244-14.336h1.66l5.254 14.336zm-2.14-6.035-1.444-4.14-.147-.43-.166-.547q-.088-.293-.176-.605-.088-.323-.166-.625-.068.302-.156.625-.088.322-.176.625-.088.293-.176.546-.078.245-.136.41l-1.416 4.141zM-673.943 116.07h3.896q1.25 0 2.197.195.957.186 1.592.616.645.42.967 1.113.322.683.322 1.69 0 .605-.195 1.132-.186.527-.547.928-.361.4-.898.674-.528.263-1.202.351v.098q.674.117 1.26.342.596.215 1.035.605.44.381.694.967t.254 1.426q0 .976-.323 1.748-.312.762-.918 1.299-.595.527-1.455.81t-1.943.283h-4.736zm1.816 6.055h2.383q.82 0 1.377-.147.556-.146.898-.43.342-.292.488-.722.157-.44.157-1.016 0-1.172-.752-1.68-.752-.507-2.373-.507h-2.178zm0 1.523v5.156h2.598q.859 0 1.435-.195.586-.195.938-.547.361-.351.517-.84.157-.498.157-1.093 0-.547-.166-1.006-.157-.46-.528-.781-.361-.333-.967-.508-.605-.186-1.504-.186zM-661.522 130.347V116.07h1.817v12.656h5.596v1.621zM-647.645 130.347h-5.175v-.996l1.68-.4v-11.484l-1.68-.4v-.997h5.175v.996l-1.68.4v11.485l1.68.4zM-637.361 126.529q0 .947-.342 1.7-.332.741-.957 1.259t-1.524.791q-.898.264-2.021.264-1.084 0-2.031-.176-.938-.166-1.573-.498v-1.738q.332.156.752.312.43.147.899.264.468.117.967.195.498.068.986.068 1.562 0 2.305-.585.751-.586.751-1.68 0-.528-.146-.918-.137-.39-.498-.713-.352-.332-.947-.635-.596-.312-1.504-.674-.87-.341-1.514-.742-.635-.41-1.055-.918-.41-.508-.615-1.152-.195-.645-.195-1.465 0-.86.312-1.533.313-.674.88-1.133.566-.469 1.347-.713.791-.244 1.738-.244 1.162 0 2.09.225.928.214 1.65.556l-.654 1.524q-.635-.284-1.445-.489-.8-.214-1.66-.214-1.192 0-1.846.556-.654.547-.654 1.485 0 .556.146.966.147.4.488.733.342.322.899.615.566.283 1.387.605.888.352 1.552.723.674.371 1.123.84.45.469.674 1.084.235.615.235 1.455M-624.354 130.347h-1.816v-6.66h-6.504v6.66h-1.816V116.07h1.816v6.016h6.504v-6.016h1.816zM-613.055 130.347h-7.412V116.07h7.412v1.602h-5.595v4.414h5.224v1.582h-5.224v5.078h5.595zM-599.402 123.072q0 1.807-.47 3.174-.468 1.357-1.357 2.275-.888.908-2.187 1.367-1.29.46-2.93.46h-3.574V116.07h3.975q1.494 0 2.705.45 1.21.448 2.06 1.337.85.879 1.309 2.188.469 1.308.469 3.027m-1.924.059q0-1.426-.322-2.461-.323-1.045-.938-1.72-.615-.673-1.514-.995-.898-.332-2.04-.332h-1.964v11.162h1.582q2.579 0 3.887-1.426 1.309-1.426 1.309-4.228" style="font-size:20px;line-height:1.25" transform="rotate(-90)"/></g><g style="font-style:normal;font-variant:normal;font-weight:400;font-stretch:normal;line-height:0%;font-family:&quot;Droid Sans&quot;;-inkscape-font-specification:&quot;Droid Sans&quot;;text-align:start;letter-spacing:0;word-spacing:0;text-anchor:start;fill:#000;fill-opacity:1;stroke:none"><path d="M-385.761 799.185c0-6.945-1.555-11.195-8.603-12.439v-.414c7.463-1.555 8.603-6.53 8.603-13.683v-17.62c0-6.116 1.762-9.744 7.256-11.195v-.208c-11.091-.518-13.89 3.94-13.89 15.03v16.688c0 6.738-1.244 9.64-7.878 10.988v.414c6.012.518 7.878 5.805 7.878 10.987v18.658c0 10.573 3.732 13.475 14.2 13.475v-.207c-6.011-1.659-7.566-4.872-7.566-11.195z" aria-label="{" style="font-style:normal;font-variant:normal;font-weight:400;font-stretch:normal;font-size:103.6531601px;line-height:1.25;font-family:&quot;ITC New Baskerville Std&quot;;-inkscape-font-specification:&quot;ITC New Baskerville Std&quot;" transform="scale(-1.1649 .85844)"/></g><g aria-label="ESTABLISHED" style="font-style:normal;font-variant:normal;font-weight:400;font-stretch:normal;line-height:0%;font-family:&quot;Droid Sans&quot;;-inkscape-font-specification:&quot;Droid Sans&quot;;text-align:start;letter-spacing:0;word-spacing:0;text-anchor:start;fill:#000;fill-opacity:1;stroke:none"><path d="M-726.368 489.42h-7.412v-14.278h7.412v1.602h-5.596v4.414h5.225v1.582h-5.225v5.078h5.596zM-715.714 485.601q0 .948-.342 1.7-.332.742-.957 1.26-.625.517-1.523.79-.899.264-2.022.264-1.084 0-2.03-.176-.938-.166-1.573-.498v-1.738q.332.156.752.312.43.147.898.264t.967.195q.498.069.986.069 1.563 0 2.305-.586.752-.586.752-1.68 0-.527-.147-.918-.136-.39-.498-.713-.351-.332-.947-.635-.596-.312-1.504-.673-.869-.342-1.513-.743-.635-.41-1.055-.918-.41-.507-.615-1.152-.196-.644-.196-1.465 0-.86.313-1.533.312-.674.879-1.133.566-.468 1.347-.713.791-.244 1.739-.244 1.162 0 2.09.225.927.215 1.65.556l-.654 1.524q-.635-.283-1.446-.488-.8-.215-1.66-.215-1.191 0-1.846.556-.654.547-.654 1.485 0 .556.147.967.146.4.488.732.342.322.898.615.567.283 1.387.606.889.351 1.553.722.674.371 1.123.84.45.469.674 1.084.234.615.234 1.455M-708.683 489.42h-1.826v-12.676h-4.082v-1.602h9.98v1.602h-4.072zM-695.304 489.42l-1.562-4.424h-5.323l-1.582 4.424h-1.836l5.245-14.336h1.66l5.254 14.336zm-2.138-6.036-1.446-4.14q-.058-.176-.146-.43l-.166-.547q-.088-.293-.176-.605-.088-.322-.166-.625-.068.303-.156.625t-.176.625q-.088.293-.176.547-.078.244-.137.41l-1.416 4.14zM-691.515 475.142h3.897q1.25 0 2.197.196.957.185 1.592.615.644.42.967 1.113.322.684.322 1.69 0 .605-.195 1.132-.186.528-.547.928t-.899.674q-.527.264-1.2.351v.098q.673.117 1.259.342.596.215 1.035.605.44.381.693.967.254.586.254 1.426 0 .977-.322 1.748-.312.762-.918 1.299-.596.527-1.455.81t-1.943.284h-4.737zm1.817 6.055h2.383q.82 0 1.376-.147.557-.146.899-.43.342-.292.488-.722.156-.44.156-1.015 0-1.172-.752-1.68-.751-.508-2.373-.508h-2.177zm0 1.523v5.157h2.597q.86 0 1.436-.196.586-.195.937-.547.362-.351.518-.84.156-.497.156-1.093 0-.547-.166-1.006-.156-.459-.527-.781-.361-.332-.967-.508-.605-.186-1.504-.186zM-679.093 489.42v-14.278h1.817V487.8h5.595v1.62zM-665.216 489.42h-5.176v-.996l1.68-.4v-11.485l-1.68-.4v-.997h5.176v.996l-1.68.4v11.485l1.68.4zM-654.933 485.601q0 .948-.341 1.7-.333.742-.958 1.26-.625.517-1.523.79-.898.264-2.021.264-1.084 0-2.032-.176-.937-.166-1.572-.498v-1.738q.332.156.752.312.43.147.898.264.47.117.967.195.498.069.987.069 1.562 0 2.304-.586.752-.586.752-1.68 0-.527-.146-.918-.137-.39-.498-.713-.352-.332-.948-.635-.595-.312-1.503-.673-.87-.342-1.514-.743-.635-.41-1.055-.918-.41-.507-.615-1.152-.195-.644-.195-1.465 0-.86.312-1.533.313-.674.879-1.133.566-.468 1.348-.713.79-.244 1.738-.244 1.162 0 2.09.225.928.215 1.65.556l-.654 1.524q-.635-.283-1.445-.488-.801-.215-1.66-.215-1.192 0-1.846.556-.655.547-.655 1.485 0 .556.147.967.146.4.488.732.342.322.899.615.566.283 1.386.606.889.351 1.553.722.674.371 1.123.84.45.469.674 1.084.234.615.234 1.455M-641.925 489.42h-1.816v-6.66h-6.504v6.66h-1.817v-14.278h1.817v6.016h6.504v-6.016h1.816zM-630.626 489.42h-7.412v-14.278h7.412v1.602h-5.596v4.414h5.225v1.582h-5.225v5.078h5.596zM-616.974 482.144q0 1.807-.468 3.174-.47 1.357-1.358 2.275-.889.909-2.187 1.368-1.29.459-2.93.459h-3.574v-14.278h3.974q1.494 0 2.705.45 1.211.449 2.061 1.337.85.88 1.309 2.188.468 1.308.468 3.027m-1.924.059q0-1.426-.322-2.461-.322-1.045-.937-1.719-.616-.674-1.514-.996-.898-.332-2.041-.332h-1.963v11.162h1.582q2.578 0 3.887-1.426 1.308-1.425 1.308-4.228" style="font-size:20px;line-height:1.25" transform="rotate(-90)"/></g><use xlink:href="#d" width="543.558" height="365.286" transform="translate(0 400)"/><use xlink:href="#e" width="543.558" height="365.286" transform="translate(0 400)"/></g></svg>