<svg xmlns="http://www.w3.org/2000/svg" width="500" height="337" viewBox="0 0 543.94 366.616"><defs><marker id="a" orient="auto" refX="0" refY="0" style="overflow:visible"><path d="m0 0 5-5-17.5 5L5 5Z" style="fill-rule:evenodd;stroke:#000;stroke-width:1.00000003pt" transform="rotate(180 -5 0)scale(.8)"/></marker></defs><path d="M176.857 222.362v349.286M428.857 222.362v349.286" style="fill:none;stroke:#000;stroke-width:6;stroke-linecap:round;stroke-linejoin:miter;stroke-miterlimit:4;stroke-dasharray:none;stroke-opacity:1" transform="translate(-43.199 -213.514)"/><path d="m188.571 250.22 228.748 31.292" style="fill:none;stroke:#000;stroke-width:1px;stroke-linecap:butt;stroke-linejoin:miter;stroke-opacity:1;marker-start:none;marker-end:url(#a)" transform="translate(-43.199 -213.514)"/><path d="m188.571 274.22 228.748 31.292" style="fill:none;stroke:#000;stroke-width:1px;stroke-linecap:butt;stroke-linejoin:miter;stroke-opacity:1;marker-start:none;marker-end:url(#a)" transform="translate(-43.199 -213.514)"/><path d="M417.32 312.22 188.57 343.511" style="fill:none;stroke:#000;stroke-width:1px;stroke-linecap:butt;stroke-linejoin:miter;stroke-opacity:1;marker-start:none;marker-end:url(#a)" transform="translate(-43.199 -213.514)"/><g aria-label="FIN" style="font-style:normal;font-variant:normal;font-weight:400;font-stretch:normal;font-size:18px;line-height:0%;font-family:&quot;Droid Sans&quot;;-inkscape-font-specification:&quot;Droid Sans&quot;;text-align:start;letter-spacing:0;word-spacing:0;text-anchor:start;fill:#000;fill-opacity:1;stroke:none"><path d="m170.784 123.787-1.62.222-1.741-12.731 6.61-.905.195 1.428-4.99.683.615 4.493 4.658-.637.196 1.428-4.66.637zM181.538 122.316l-4.615.631-.121-.888 1.449-.562-1.401-10.24-1.547-.153-.121-.888 4.615-.631.121.888-1.449.562 1.401 10.24 1.547.153zM193.538 120.674l-1.872.256-7.703-9.68-.07.01q.145.664.27 1.32.112.562.214 1.178.111.614.179 1.11l.945 6.906-1.498.205-1.742-12.73 1.855-.255 7.67 9.632.06-.008q-.117-.658-.24-1.298-.046-.278-.103-.562-.05-.295-.106-.58l-.095-.564-.068-.496-.953-6.967 1.515-.207z"/></g><path d="m188.571 348.22 228.748 31.292" style="fill:none;stroke:#000;stroke-width:1px;stroke-linecap:butt;stroke-linejoin:miter;stroke-opacity:1;marker-start:none;marker-end:url(#a)" transform="translate(-43.199 -213.514)"/><g aria-label="FIN,ACK" style="font-style:normal;font-variant:normal;font-weight:400;font-stretch:normal;font-size:18px;line-height:0%;font-family:&quot;Droid Sans&quot;;-inkscape-font-specification:&quot;Droid Sans&quot;;text-align:start;letter-spacing:0;word-spacing:0;text-anchor:start;fill:#000;fill-opacity:1;stroke:none"><path d="m290.343 151.02-1.62-.22 1.742-12.732 6.61.904-.196 1.428-4.99-.682-.614 4.493 4.659.637-.196 1.428-4.659-.637zM301.098 152.492l-4.616-.632.122-.888 1.547-.152 1.4-10.24-1.448-.562.121-.889 4.615.632-.121.888-1.547.152-1.4 10.24 1.448.563zM313.097 154.133l-1.872-.256-4.82-11.393-.07-.01q-.039.678-.095 1.344-.042.571-.11 1.192-.058.622-.126 1.118l-.944 6.905-1.498-.205 1.742-12.73 1.854.253 4.801 11.338.061.008q.064-.666.118-1.315.03-.28.051-.57.032-.297.054-.587l.06-.568.068-.496.953-6.967 1.515.208zM318.257 152.728l.103.218q-.186.454-.433.961-.238.509-.52 1.02-.275.512-.574 1.013-.291.51-.576.968l-1.202-.165q.204-.513.404-1.071.21-.557.401-1.116.2-.55.37-1.076.17-.536.303-.988zM328.467 156.236l-.854-4.135-4.746-.65-1.95 3.752-1.637-.224 6.425-12.143 1.48.202 2.936 13.424zm-1.171-5.642-.784-3.869q-.03-.164-.078-.401-.039-.236-.081-.508t-.083-.561q-.04-.298-.072-.578-.098.262-.216.539-.117.276-.233.535-.114.25-.223.467-.1.208-.172.349l-1.768 3.52zM338.415 145.896q-.932-.127-1.738.126-.805.245-1.436.833-.622.589-1.047 1.497-.418.91-.58 2.103-.169 1.228-.047 2.22.131.985.555 1.709.425.723 1.145 1.168t1.747.585q.775.106 1.492.053.718-.061 1.425-.169l-.193 1.41q-.358.085-.712.143-.352.05-.735.06-.374.01-.804-.022-.423-.022-.937-.093-1.428-.195-2.409-.808t-1.55-1.57q-.562-.955-.727-2.21-.165-1.256.036-2.728.198-1.445.737-2.596.547-1.149 1.397-1.911.858-.76 2.012-1.09t2.564-.138q.94.129 1.768.437.827.308 1.465.768l-.865 1.266q-.51-.354-1.127-.642t-1.436-.4zM351.03 159.322l-1.838-.25-3.096-6.616-1.346.827-.696 5.085-1.62-.221 1.742-12.731 1.62.221-.871 6.366 1.254-1.319 4.606-4.364 1.82.249-5.287 4.927z"/></g><path d="M417.32 386.22 280 407.511" style="fill:none;stroke:#000;stroke-width:1px;stroke-linecap:butt;stroke-linejoin:miter;stroke-opacity:1;marker-start:none;marker-end:url(#a)" transform="translate(-43.199 -213.514)"/><g aria-label="ACK" style="font-style:normal;font-variant:normal;font-weight:400;font-stretch:normal;font-size:18px;line-height:0%;font-family:&quot;Droid Sans&quot;;-inkscape-font-specification:&quot;Droid Sans&quot;;text-align:start;letter-spacing:0;word-spacing:0;text-anchor:start;fill:#000;fill-opacity:1;stroke:none"><path d="m330.208 197.417-1.933-3.754-4.745.65-.871 4.137-1.638.224 2.928-13.423 1.48-.202 6.434 12.142zm-2.643-5.12-1.794-3.516q-.073-.15-.183-.365l-.215-.468q-.114-.25-.23-.518-.118-.277-.224-.537-.024.278-.063.576-.04.298-.081.579-.043.272-.09.509-.04.227-.072.382l-.757 3.865zM337.014 184.786q-.932.127-1.64.588-.71.452-1.16 1.187-.44.735-.607 1.725-.157.988.006 2.181.168 1.228.552 2.151.391.914.994 1.496.603.583 1.416.818t1.84.094q.775-.106 1.452-.35.675-.251 1.327-.544l.193 1.41q-.322.177-.647.328-.327.143-.693.255-.357.11-.78.195-.414.092-.927.163-1.428.195-2.538-.132-1.109-.328-1.915-1.096-.797-.769-1.294-1.934-.496-1.165-.697-2.637-.198-1.445.012-2.698.219-1.254.832-2.216.622-.964 1.645-1.592 1.023-.627 2.434-.82.94-.13 1.82-.054.88.075 1.618.346l-.494 1.452q-.586-.204-1.258-.316t-1.49 0zM352.77 194.33l-1.837.252-4.758-5.54-1.075 1.158.696 5.085-1.62.222-1.742-12.731 1.62-.222.87 6.366.854-1.608 3.266-5.44 1.82-.25-3.77 6.167z"/></g><g style="font-style:normal;font-variant:normal;font-weight:400;font-stretch:normal;line-height:0%;font-family:&quot;Droid Sans&quot;;-inkscape-font-specification:&quot;Droid Sans&quot;;text-align:start;letter-spacing:0;word-spacing:0;text-anchor:start;fill:#000;fill-opacity:1;stroke:none"><path d="M158.578 301.862c0-8.147-1.824-13.132-10.093-14.592v-.486c8.756-1.824 10.093-7.66 10.093-16.051V250.06c0-7.174 2.067-11.43 8.512-13.132v-.244c-13.011-.608-16.294 4.621-16.294 17.632v19.578c0 7.904-1.46 11.31-9.242 12.89v.486c7.053.608 9.242 6.81 9.242 12.89v21.888c0 12.404 4.377 15.808 16.66 15.808v-.243c-7.054-1.945-8.878-5.715-8.878-13.133z" aria-label="{" style="font-style:normal;font-variant:normal;font-weight:400;font-stretch:normal;font-size:121.60096741px;line-height:1.25;font-family:&quot;ITC New Baskerville Std&quot;;-inkscape-font-specification:&quot;ITC New Baskerville Std&quot;" transform="matrix(.99296 0 0 1.00709 -43.199 -213.514)"/></g><g aria-label="ESTABLISHED" style="font-style:normal;font-variant:normal;font-weight:400;font-stretch:normal;line-height:0%;font-family:&quot;Droid Sans&quot;;-inkscape-font-specification:&quot;Droid Sans&quot;;text-align:start;letter-spacing:0;word-spacing:0;text-anchor:start;fill:#000;fill-opacity:1;stroke:none"><path d="M-340.297 130.347h-7.412V116.07h7.412v1.602h-5.596v4.414h5.225v1.582h-5.225v5.078h5.596zM-329.643 126.529q0 .947-.341 1.7-.332.741-.957 1.259t-1.524.791q-.898.264-2.021.264-1.084 0-2.032-.176-.937-.166-1.572-.498v-1.738q.332.156.752.312.43.147.899.264.468.117.966.195.498.068.987.068 1.562 0 2.304-.585.752-.586.752-1.68 0-.528-.146-.918-.137-.39-.498-.713-.352-.332-.947-.635-.596-.312-1.504-.674-.87-.341-1.514-.742-.635-.41-1.055-.918-.41-.508-.615-1.152-.195-.645-.195-1.465 0-.86.312-1.533.313-.674.88-1.133.566-.469 1.347-.713.79-.244 1.738-.244 1.162 0 2.09.225.928.214 1.65.556l-.654 1.524q-.635-.284-1.445-.489-.801-.214-1.66-.214-1.192 0-1.846.556-.654.547-.654 1.485 0 .556.146.966.146.4.488.733.342.322.899.615.566.283 1.386.605.89.352 1.553.723.674.371 1.123.84.45.469.674 1.084.234.615.234 1.455M-322.611 130.347h-1.827v-12.675h-4.082v-1.602h9.98v1.602h-4.071zM-309.232 130.347l-1.563-4.423h-5.322l-1.582 4.423h-1.836l5.244-14.336h1.66l5.254 14.336zm-2.14-6.035-1.444-4.14q-.059-.176-.147-.43l-.166-.547q-.088-.293-.176-.605-.088-.323-.166-.625-.068.302-.156.625-.088.322-.176.625-.088.293-.176.546-.078.245-.136.41l-1.416 4.141zM-305.443 116.07h3.896q1.25 0 2.197.195.957.186 1.592.616.645.42.967 1.113.322.683.322 1.69 0 .605-.195 1.132-.186.527-.547.928-.361.4-.898.674-.528.263-1.202.351v.098q.674.117 1.26.342.596.215 1.035.605.44.381.694.967t.254 1.426q0 .976-.323 1.748-.312.762-.918 1.299-.595.527-1.455.81t-1.943.283h-4.736zm1.816 6.055h2.383q.82 0 1.377-.147.556-.146.898-.43.342-.292.489-.722.156-.44.156-1.016 0-1.172-.752-1.68-.752-.507-2.373-.507h-2.178zm0 1.523v5.156h2.598q.86 0 1.435-.195.586-.195.938-.547.361-.351.517-.84.157-.498.157-1.093 0-.547-.166-1.006-.157-.46-.528-.781-.361-.333-.967-.508-.605-.186-1.503-.186zM-293.021 130.347V116.07h1.816v12.656h5.596v1.621zM-279.145 130.347h-5.175v-.996l1.68-.4v-11.484l-1.68-.4v-.997h5.175v.996l-1.68.4v11.485l1.68.4zM-268.861 126.529q0 .947-.342 1.7-.332.741-.957 1.259t-1.524.791q-.898.264-2.021.264-1.084 0-2.031-.176-.938-.166-1.573-.498v-1.738q.332.156.752.312.43.147.899.264t.967.195q.498.068.986.068 1.562 0 2.305-.585.752-.586.752-1.68 0-.528-.147-.918-.137-.39-.498-.713-.352-.332-.947-.635-.596-.312-1.504-.674-.87-.341-1.514-.742-.635-.41-1.055-.918-.41-.508-.615-1.152-.195-.645-.195-1.465 0-.86.312-1.533.313-.674.88-1.133.566-.469 1.347-.713.791-.244 1.738-.244 1.162 0 2.09.225.928.214 1.65.556l-.654 1.524q-.635-.284-1.445-.489-.8-.214-1.66-.214-1.192 0-1.846.556-.654.547-.654 1.485 0 .556.146.966.147.4.489.733.341.322.898.615.566.283 1.387.605.888.352 1.552.723.674.371 1.123.84.45.469.674 1.084.235.615.235 1.455M-255.854 130.347h-1.816v-6.66h-6.504v6.66h-1.816V116.07h1.816v6.016h6.504v-6.016h1.816zM-244.555 130.347h-7.412V116.07h7.412v1.602h-5.595v4.414h5.224v1.582h-5.224v5.078h5.595zM-230.902 123.072q0 1.807-.47 3.174-.468 1.357-1.357 2.275-.888.908-2.187 1.367-1.29.46-2.93.46h-3.574V116.07h3.975q1.494 0 2.705.45 1.21.448 2.06 1.337.85.879 1.309 2.188.469 1.308.469 3.027m-1.924.059q0-1.426-.322-2.461-.323-1.045-.938-1.72-.615-.673-1.514-.995-.898-.332-2.04-.332h-1.964v11.162h1.583q2.578 0 3.886-1.426t1.309-4.228" style="font-size:20px;line-height:1.25" transform="rotate(-90 -128.357 -85.158)"/></g><g style="font-style:normal;font-variant:normal;font-weight:400;font-stretch:normal;line-height:0%;font-family:&quot;Droid Sans&quot;;-inkscape-font-specification:&quot;Droid Sans&quot;;text-align:start;letter-spacing:0;word-spacing:0;text-anchor:start;fill:#000;fill-opacity:1;stroke:none"><path d="M-366.68 418.457c0-6.6-1.477-10.64-8.177-11.823v-.394c7.094-1.478 8.178-6.207 8.178-13.005v-16.75c0-5.813 1.675-9.261 6.897-10.64v-.197c-10.543-.493-13.203 3.743-13.203 14.286v15.862c0 6.405-1.182 9.163-7.488 10.444v.394c5.715.493 7.488 5.518 7.488 10.444v17.735c0 10.05 3.547 12.808 13.498 12.808v-.197c-5.714-1.576-7.192-4.63-7.192-10.64z" aria-label="{" style="font-style:normal;font-variant:normal;font-weight:400;font-stretch:normal;font-size:98.52592468px;line-height:1.25;font-family:&quot;ITC New Baskerville Std&quot;;-inkscape-font-specification:&quot;ITC New Baskerville Std&quot;" transform="matrix(-1.22552 0 0 .81598 -43.199 -213.514)"/></g><g aria-label="FIN-WAIT-1" style="font-style:normal;font-variant:normal;font-weight:400;font-stretch:normal;line-height:0%;font-family:&quot;Droid Sans&quot;;-inkscape-font-specification:&quot;Droid Sans&quot;;text-align:start;letter-spacing:0;word-spacing:0;text-anchor:start;fill:#000;fill-opacity:1;stroke:none"><path d="M477.681 338.974h-1.816v-14.278h7.412v1.602h-5.596v5.039h5.225v1.601h-5.225zM489.742 338.974h-5.176v-.996l1.68-.4v-11.485l-1.68-.4v-.997h5.176v.996l-1.68.4v11.485l1.68.4zM503.199 338.974h-2.1l-7.021-11.817H494q.058.752.097 1.494.04.635.059 1.328.03.694.03 1.25v7.745h-1.68v-14.278h2.08l6.992 11.758h.068q-.029-.742-.068-1.465-.01-.312-.03-.635-.01-.332-.029-.654l-.02-.635v-8.369h1.7zM505.933 334.433v-1.641h4.844v1.64zM519.478 324.696h1.924l2.236 8.36q.147.547.284 1.093.146.547.263 1.065.127.508.215.967.098.459.156.83.04-.371.098-.81t.137-.919q.078-.488.166-.986.097-.508.205-.986l1.953-8.614h1.943l-3.584 14.278h-1.836l-2.48-9.16q-.137-.499-.264-1.026t-.234-.986q-.117-.537-.225-1.045-.107.498-.215 1.035-.097.459-.224 1.006-.117.547-.254 1.074l-2.363 9.102h-1.836l-3.77-14.278h1.924l2.178 8.682q.117.45.215.937.097.479.175.957.088.479.157.928.068.44.117.81.049-.36.117-.84.078-.478.176-1.005t.205-1.064q.117-.547.244-1.026zM539.185 338.974l-1.562-4.424H532.3l-1.582 4.424h-1.835l5.244-14.336h1.66l5.254 14.336zm-2.138-6.036-1.446-4.14q-.058-.176-.146-.43l-.166-.547q-.088-.293-.176-.605-.088-.322-.166-.625-.068.303-.156.625t-.176.625q-.088.293-.176.547-.078.244-.137.41l-1.416 4.14zM547.008 338.974h-5.176v-.996l1.68-.4v-11.485l-1.68-.4v-.997h5.176v.996l-1.68.4v11.485l1.68.4zM553.931 338.974h-1.826v-12.676h-4.082v-1.602h9.98v1.602h-4.072zM558.043 334.433v-1.641h4.843v1.64zM570.63 338.974h-1.718v-9.815000000000001l.02-.947q.019-.479.029-.908.02-.44.029-.772-.166.176-.293.303t-.264.244l-.273.254-.352.303-1.445 1.181-.938-1.2 3.74-2.92h1.466z" style="font-size:20px;line-height:1.25" transform="translate(-43.199 -213.514)"/></g><g style="font-style:normal;font-variant:normal;font-weight:400;font-stretch:normal;line-height:0%;font-family:&quot;Droid Sans&quot;;-inkscape-font-specification:&quot;Droid Sans&quot;;text-align:start;letter-spacing:0;word-spacing:0;text-anchor:start;fill:#000;fill-opacity:1;stroke:none"><path d="M-385.761 486.992c0-6.945-1.555-11.195-8.603-12.439v-.414c7.463-1.555 8.603-6.53 8.603-13.682v-17.621c0-6.116 1.762-9.744 7.256-11.195v-.207c-11.091-.519-13.89 3.939-13.89 15.03v16.688c0 6.737-1.244 9.64-7.878 10.987v.414c6.012.519 7.878 5.805 7.878 10.988v18.657c0 10.573 3.732 13.475 14.2 13.475v-.207c-6.011-1.659-7.566-4.872-7.566-11.195z" aria-label="{" style="font-style:normal;font-variant:normal;font-weight:400;font-stretch:normal;font-size:103.6531601px;line-height:1.25;font-family:&quot;ITC New Baskerville Std&quot;;-inkscape-font-specification:&quot;ITC New Baskerville Std&quot;" transform="matrix(-1.1649 0 0 .85844 -43.199 -213.514)"/></g><g aria-label="TIME-WAIT" style="font-style:normal;font-variant:normal;font-weight:400;font-stretch:normal;line-height:0%;font-family:&quot;Droid Sans&quot;;-inkscape-font-specification:&quot;Droid Sans&quot;;text-align:start;letter-spacing:0;word-spacing:0;text-anchor:start;fill:#000;fill-opacity:1;stroke:none"><path d="M480.025 414.545H478.2v-12.676h-4.082v-1.601h9.98v1.601h-4.072zM490.289 414.545h-5.176v-.996l1.68-.4v-11.485l-1.68-.4v-.996h5.176v.996l-1.68.4v11.485l1.68.4zM498.95 414.545l-4.325-12.5h-.078q.058.723.097 1.436.04.615.059 1.298.03.674.03 1.23v8.536h-1.68v-14.277h2.695l4.023 11.64h.059l4.043-11.64h2.695v14.277h-1.816v-8.662q0-.508.02-1.162.019-.654.048-1.25.04-.694.068-1.406h-.078l-4.365 12.48zM517.886 414.545h-7.412v-14.277h7.412v1.601h-5.595v4.414h5.224v1.582h-5.224v5.078h5.595zM519.879 410.004v-1.64h4.843v1.64zM533.424 400.268h1.923l2.237 8.359q.146.547.283 1.094.146.547.264 1.064.127.508.214.967.098.459.157.83.039-.371.097-.81t.137-.918q.078-.489.166-.987.098-.508.205-.986l1.953-8.613h1.944l-3.584 14.277h-1.836l-2.48-9.16q-.138-.498-.265-1.026l-.234-.986q-.117-.537-.225-1.045-.107.498-.214 1.035-.098.46-.225 1.006-.117.547-.254 1.074l-2.363 9.102h-1.836l-3.77-14.277h1.924l2.178 8.681q.117.45.215.938.097.478.176.957.087.478.156.928.068.439.117.81.049-.361.117-.84.078-.478.176-1.006.098-.527.205-1.064.117-.547.244-1.025zM553.13 414.545l-1.562-4.424h-5.322l-1.582 4.424h-1.836l5.244-14.336h1.66l5.254 14.336zm-2.138-6.035-1.445-4.14q-.059-.177-.147-.43l-.166-.547q-.088-.293-.176-.606-.088-.322-.166-.625-.068.303-.156.625t-.176.625q-.088.293-.176.547-.078.244-.136.41l-1.416 4.14zM560.953 414.545h-5.176v-.996l1.68-.4v-11.485l-1.68-.4v-.996h5.176v.996l-1.68.4v11.485l1.68.4zM567.877 414.545h-1.827v-12.676h-4.082v-1.601h9.98v1.601h-4.071z" style="font-size:20px;line-height:1.25" transform="translate(-43.199 -213.514)"/></g><g style="font-style:normal;font-variant:normal;font-weight:400;font-stretch:normal;line-height:0%;font-family:&quot;Droid Sans&quot;;-inkscape-font-specification:&quot;Droid Sans&quot;;text-align:start;letter-spacing:0;word-spacing:0;text-anchor:start;fill:#000;fill-opacity:1;stroke:none"><path d="M228.298 332.038c0-11.729-2.626-18.906-14.53-21.007v-.7c12.604-2.626 14.53-11.03 14.53-23.109v-29.76c0-10.33 2.976-16.456 12.254-18.907v-.35c-18.732-.876-23.459 6.652-23.459 25.384v28.185c0 11.379-2.1 16.28-13.304 18.557v.7c10.153.875 13.304 9.803 13.304 18.557v31.51c0 17.857 6.303 22.76 23.984 22.76v-.351c-10.154-2.801-12.78-8.228-12.78-18.907z" aria-label="{" style="font-style:normal;font-variant:normal;font-weight:400;font-stretch:normal;font-size:175.06307983px;line-height:1.25;font-family:&quot;ITC New Baskerville Std&quot;;-inkscape-font-specification:&quot;ITC New Baskerville Std&quot;" transform="matrix(.68973 0 0 1.44985 -43.199 -213.514)"/></g><g aria-label="LAST-ACK" style="font-style:normal;font-variant:normal;font-weight:400;font-stretch:normal;line-height:0%;font-family:&quot;Droid Sans&quot;;-inkscape-font-specification:&quot;Droid Sans&quot;;text-align:start;letter-spacing:0;word-spacing:0;text-anchor:start;fill:#000;fill-opacity:1;stroke:none"><path d="M48.638 458.092v-14.277h1.817v12.656h5.595v1.621zM66.842 458.092l-1.563-4.424h-5.322l-1.582 4.424h-1.836l5.244-14.336h1.66l5.254 14.336zm-2.14-6.035-1.444-4.14-.147-.43-.166-.547q-.088-.293-.176-.606-.088-.322-.166-.625-.068.303-.156.625-.088.323-.176.625-.088.293-.176.547-.078.244-.136.41l-1.416 4.141zM78.15 454.274q0 .947-.342 1.699-.332.742-.957 1.26-.625.517-1.523.79-.899.264-2.022.264-1.084 0-2.03-.175-.938-.166-1.573-.498v-1.739q.332.157.752.313.43.146.898.264.469.117.967.195.498.068.986.068 1.563 0 2.305-.586.752-.586.752-1.68 0-.527-.146-.917-.137-.391-.499-.713-.351-.332-.947-.635-.596-.312-1.504-.674-.869-.342-1.513-.742-.635-.41-1.055-.918-.41-.508-.615-1.152-.196-.645-.196-1.465 0-.86.313-1.533.312-.674.879-1.133.566-.469 1.347-.713.791-.244 1.739-.244 1.162 0 2.09.224.927.215 1.65.557l-.654 1.523q-.635-.283-1.446-.488-.8-.215-1.66-.215-1.191 0-1.846.557-.654.547-.654 1.484 0 .557.147.967.146.4.488.733.342.322.898.615.567.283 1.387.605.889.352 1.553.723.674.371 1.123.84.45.469.674 1.084.234.615.234 1.455M85.181 458.092h-1.826v-12.676h-4.082v-1.601h9.98v1.601h-4.072zM89.293 453.551v-1.64h4.843v1.64zM105.24 458.092l-1.563-4.424h-5.322l-1.582 4.424h-1.836l5.244-14.336h1.66l5.254 14.336zm-2.139-6.035-1.445-4.14q-.059-.176-.147-.43l-.166-.547q-.087-.293-.175-.606-.088-.322-.166-.625-.069.303-.157.625-.087.323-.175.625-.088.293-.176.547-.078.244-.137.41l-1.416 4.141zM114.634 445.211q-1.044 0-1.894.4-.85.391-1.455 1.134-.596.742-.928 1.806-.322 1.065-.322 2.402 0 1.377.283 2.452.293 1.064.87 1.797.575.732 1.435 1.113.86.38 2.011.38.87 0 1.65-.165.782-.176 1.544-.4v1.581q-.381.147-.762.264-.38.107-.8.176-.41.068-.89.097-.468.04-1.044.04-1.602 0-2.774-.528-1.172-.527-1.943-1.494-.762-.967-1.133-2.324-.371-1.358-.371-3.008 0-1.621.42-2.969.43-1.347 1.25-2.314.83-.967 2.05-1.504 1.221-.537 2.803-.537 1.055 0 2.012.215.957.214 1.729.625l-.762 1.523q-.615-.313-1.338-.537t-1.64-.225M130.543 458.092h-2.06l-4.405-6.816-1.358 1.113v5.703h-1.816v-14.277h1.816v7.138l1.182-1.64 4.414-5.498h2.041l-5.078 6.22z" style="font-size:20px;line-height:1.25" transform="translate(-43.199 -213.514)"/></g><path d="M417.32 478.22 188.57 509.511" style="fill:none;stroke:#000;stroke-width:1px;stroke-linecap:butt;stroke-linejoin:miter;stroke-opacity:1;marker-start:none;marker-end:url(#a)" transform="translate(-43.199 -213.514)"/><path d="m188.571 514.22 228.748 31.292" style="fill:none;stroke:#000;stroke-width:1px;stroke-linecap:butt;stroke-linejoin:miter;stroke-opacity:1;marker-start:none;marker-end:url(#a)" transform="translate(-43.199 -213.514)"/><g aria-label="SYN" style="font-style:normal;font-variant:normal;font-weight:400;font-stretch:normal;font-size:18px;line-height:0%;font-family:&quot;Droid Sans&quot;;-inkscape-font-specification:&quot;Droid Sans&quot;;text-align:start;letter-spacing:0;word-spacing:0;text-anchor:start;fill:#000;fill-opacity:1;stroke:none"><path d="M330.805 263.544q.116.844-.098 1.557-.205.702-.7 1.24-.493.537-1.261.89-.77.345-1.77.482-.967.133-1.833.091-.857-.033-1.463-.252l-.212-1.55q.315.099.709.187.4.078.833.126.432.047.886.056.452 0 .888-.06 1.393-.19 1.983-.803.6-.614.466-1.59-.064-.47-.243-.8-.17-.332-.53-.575-.355-.254-.923-.45-.57-.207-1.423-.418-.817-.199-1.44-.477-.616-.289-1.053-.69-.428-.403-.689-.953-.253-.55-.353-1.282-.105-.766.092-1.405.196-.64.645-1.118.448-.487 1.115-.8.676-.314 1.52-.43 1.036-.141 1.891-.054.854.078 1.54.295l-.398 1.438q-.6-.175-1.348-.259-.74-.094-1.507.01-1.062.146-1.578.722-.516.568-.402 1.404.068.496.248.844.18.34.525.594.344.245.876.439.54.183 1.31.37.836.205 1.473.455.647.249 1.104.612t.733.885q.284.52.387 1.268zM335.93 259.897l2.08-6.84 1.742-.238-2.82 8.307.678 4.955-1.628.223-.666-4.868-4.96-7.332 1.768-.242zM352.77 264.007l-1.872.256-7.702-9.68-.07.01q.144.664.27 1.32.112.562.214 1.178.11.614.179 1.11l.944 6.906-1.498.205-1.741-12.73 1.855-.255 7.669 9.632.06-.008q-.116-.658-.239-1.298-.047-.278-.104-.562-.049-.295-.105-.58l-.095-.564-.068-.496-.953-6.967 1.515-.207z"/></g><g aria-label="RST" style="font-style:normal;font-variant:normal;font-weight:400;font-stretch:normal;font-size:18px;line-height:0%;font-family:&quot;Droid Sans&quot;;-inkscape-font-specification:&quot;Droid Sans&quot;;text-align:start;letter-spacing:0;word-spacing:0;text-anchor:start;fill:#000;fill-opacity:1;stroke:none"><path d="m326.243 315.761-.72 5.26-1.62-.222 1.742-12.731 3.1.424q2.317.317 3.3 1.365t.734 2.868q-.103.758-.399 1.294-.286.538-.699.898-.403.353-.893.561t-.992.317l2.685 6.177-1.907-.26-2.337-5.678zm.188-1.376 1.428.196q.784.107 1.353.034.57-.082.959-.33.398-.256.616-.679.227-.43.31-1.031.085-.627-.038-1.087-.115-.46-.442-.788-.32-.328-.86-.526-.53-.206-1.288-.31l-1.393-.19zM341.594 319.75q-.116.845-.512 1.474-.387.621-1.007 1.007t-1.455.52q-.833.125-1.835-.012-.966-.133-1.79-.405-.815-.262-1.34-.636l.211-1.55q.277.18.633.37.365.184.769.345.403.162.838.292.436.122.87.182 1.394.19 2.127-.242.742-.43.876-1.406.064-.47-.019-.836-.074-.365-.357-.697-.273-.339-.767-.681-.493-.351-1.259-.784-.733-.411-1.26-.847-.515-.443-.828-.947-.303-.503-.408-1.103-.095-.598.005-1.33.105-.766.466-1.329.36-.562.922-.903.562-.349 1.289-.47.735-.122 1.58-.007 1.036.142 1.836.455.8.305 1.403.698l-.769 1.279q-.531-.33-1.23-.612-.687-.29-1.453-.394-1.063-.146-1.714.271-.65.408-.765 1.244-.067.496.013.88.082.375.346.712.266.33.726.659.47.321 1.163.709.75.422 1.296.833.556.414.9.886t.468 1.05q.134.576.031 1.325zM347.398 324.013l-1.629-.223 1.547-11.303-3.64-.498.195-1.428 8.9 1.218-.196 1.428-3.63-.497z"/></g><g aria-label="(shortened)" style="font-style:normal;font-variant:normal;font-weight:400;font-stretch:normal;line-height:0%;font-family:&quot;Droid Sans&quot;;-inkscape-font-specification:&quot;Droid Sans&quot;;text-align:start;letter-spacing:0;word-spacing:0;text-anchor:start;fill:#000;fill-opacity:1;stroke:none"><path d="M487.154 424.71q0-.854.124-1.682.123-.834.375-1.613.253-.786.636-1.504.39-.724.923-1.36h1.176q-.957 1.32-1.456 2.898-.492 1.58-.492 3.247 0 .814.123 1.62.13.807.369 1.58.246.772.608 1.497.363.724.834 1.367h-1.162q-.533-.615-.923-1.32-.383-.704-.636-1.47-.252-.772-.375-1.592-.124-.82-.124-1.668M496.486 426.487q0 .547-.199.957-.198.41-.574.69-.37.274-.895.411-.527.137-1.183.137-.745 0-1.278-.123-.534-.117-.937-.349v-1.135q.212.11.472.22.26.102.547.184t.588.136q.307.048.608.048.444 0 .752-.075.314-.075.506-.212.198-.144.287-.342.089-.205.089-.45 0-.213-.069-.384-.068-.17-.253-.335-.177-.17-.492-.341-.314-.171-.806-.383t-.89-.417q-.389-.205-.662-.458-.274-.253-.424-.581-.144-.335-.144-.793 0-.479.185-.848.191-.376.533-.629t.82-.383q.48-.13 1.067-.13.663 0 1.21.144.554.144 1.046.376l-.43 1.005q-.445-.198-.917-.342-.465-.15-.95-.15-.697 0-1.032.232-.335.226-.335.65 0 .239.075.416.082.178.273.335.192.158.513.322.321.157.8.355.492.205.875.41.39.205.663.465.273.253.417.581t.144.786M503 428.545v-4.833q0-.889-.362-1.333-.356-.444-1.121-.444-.554 0-.93.177-.376.178-.608.527-.226.348-.328.854-.096.506-.096 1.162v3.89h-1.244v-10.637h1.244v3.159l-.055.984h.069q.17-.294.403-.506.24-.219.52-.362.28-.144.594-.212.315-.069.643-.069 1.25 0 1.88.657.635.65.635 2.085v4.901zM512.687 424.778q0 .937-.233 1.668-.225.725-.656 1.224-.424.492-1.032.752t-1.367.26q-.704 0-1.3-.26-.594-.26-1.031-.752-.431-.499-.677-1.224-.24-.731-.24-1.668 0-.93.226-1.647.233-.725.656-1.217.424-.499 1.033-.752.615-.26 1.374-.26.704 0 1.298.26.595.253 1.026.752.437.492.677 1.217.246.718.246 1.647m-5.25 0q0 1.43.465 2.154.471.718 1.524.718t1.51-.718q.466-.725.466-2.154t-.472-2.132q-.465-.711-1.518-.711t-1.517.71q-.458.705-.458 2.133M517.91 420.902q.198 0 .444.021.246.014.424.048l-.165 1.148q-.19-.034-.396-.054-.198-.028-.376-.028-.43 0-.786.178-.356.17-.615.5-.253.32-.397.778-.137.452-.137 1.005v4.047h-1.244v-7.506h1.012l.15 1.374h.055q.171-.294.362-.567.199-.274.438-.479.246-.212.547-.335.3-.13.683-.13M522.51 427.663q.123 0 .273-.013.158-.014.301-.035.144-.02.26-.048.123-.027.185-.047v.943q-.09.041-.226.082-.137.041-.3.068-.165.035-.343.048-.177.02-.348.02-.424 0-.786-.109-.363-.11-.63-.376-.26-.266-.41-.717-.15-.458-.15-1.149v-4.354h-1.06v-.554l1.06-.533.533-1.572h.718v1.722h1.887v.937h-1.887v4.354q0 .663.212.998.219.335.71.335M527.965 428.682q-.752 0-1.374-.253t-1.073-.738q-.445-.486-.69-1.204-.247-.717-.247-1.64 0-.93.226-1.661.225-.732.636-1.238.41-.512.977-.779.574-.267 1.265-.267.677 0 1.217.247.54.239.916.683.376.438.574 1.06.205.615.205 1.367v.772h-4.73q.034 1.32.553 1.942.526.622 1.559.622.348 0 .642-.034.301-.035.574-.096.28-.068.54-.164.26-.103.527-.226v1.108q-.274.13-.54.225-.26.096-.54.158-.274.061-.574.088-.294.028-.643.028m-.308-6.747q-.779 0-1.237.533-.451.533-.526 1.552h3.363q0-.465-.096-.848-.089-.39-.287-.663-.191-.274-.492-.424-.3-.15-.725-.15M537.18 428.545v-4.833q0-.889-.362-1.333-.356-.444-1.122-.444-.553 0-.93.177-.375.178-.608.527-.225.348-.328.854-.095.506-.095 1.162v3.89h-1.245v-7.506h1.012l.178 1.012h.068q.171-.294.404-.506.239-.219.52-.362.28-.144.594-.212.314-.069.642-.069 1.251 0 1.88.657.636.65.636 2.085v4.901zM543.715 428.682q-.752 0-1.374-.253t-1.073-.738q-.445-.486-.69-1.204-.247-.717-.247-1.64 0-.93.226-1.661.225-.732.636-1.238.41-.512.977-.779.574-.267 1.265-.267.677 0 1.217.247.54.239.916.683.376.438.574 1.06.205.615.205 1.367v.772h-4.73q.034 1.32.553 1.942.526.622 1.559.622.348 0 .642-.034.301-.035.574-.096.28-.068.54-.164.26-.103.527-.226v1.108q-.274.13-.54.225-.26.096-.54.158-.274.061-.574.088-.294.028-.643.028m-.308-6.747q-.779 0-1.237.533-.451.533-.526 1.552h3.363q0-.465-.096-.848-.089-.39-.287-.663-.191-.274-.492-.424-.3-.15-.725-.15M552.875 427.54h-.055q-.15.233-.355.444-.198.206-.465.363-.26.157-.588.246t-.738.089q-.636 0-1.162-.246t-.902-.732q-.376-.492-.582-1.217-.205-.724-.205-1.681 0-.964.205-1.689.206-.731.582-1.223t.902-.739q.526-.252 1.162-.252.403 0 .731.088.329.09.588.24.267.15.472.348.205.199.355.417h.082l-.04-.444-.028-.362q-.014-.192-.014-.301v-2.98h1.245v10.636h-1.005zm-1.962.11q.52 0 .875-.158.363-.157.581-.478.226-.322.328-.8.11-.485.124-1.128v-.28q0-.69-.096-1.224-.09-.54-.315-.902-.218-.37-.588-.554-.369-.191-.922-.191-.923 0-1.36.745-.431.745-.431 2.14 0 1.428.43 2.132.438.698 1.374.698M558.911 424.71q0 .848-.123 1.668t-.383 1.593q-.252.765-.642 1.47-.383.704-.916 1.319h-1.162q.471-.643.834-1.367.362-.725.608-1.497t.37-1.58q.122-.806.122-1.62 0-1.668-.492-3.247t-1.456-2.898h1.176q.533.636.916 1.36.39.718.642 1.504.26.78.383 1.613.123.828.123 1.682" style="font-size:14px;line-height:1.25" transform="translate(-43.199 -213.514)"/></g><path d="M327.59 452.648h254.106" style="fill:none;stroke:#000;stroke-width:1;stroke-linecap:butt;stroke-linejoin:miter;stroke-miterlimit:4;stroke-dasharray:3.00000002,3.00000002;stroke-dashoffset:0;stroke-opacity:1" transform="translate(-43.199 -213.514)"/><path d="m-83.571 278.79-53.215 53.215M-136.786 278.79l53.215 53.215" style="fill:none;stroke:#c90000;stroke-width:10;stroke-linecap:round;stroke-linejoin:miter;stroke-miterlimit:4;stroke-dasharray:none;stroke-opacity:1" transform="rotate(-4.634 969.492 -3202.154)scale(.40113)"/></svg>